<svg id="Capa_1" data-name="Capa 1" xmlns="http://www.w3.org/2000/svg" viewBox="0 0 1965.17 1856.11"><defs><style>.cls-1{fill:#adb6da;}.cls-2{fill:#531d34;}.cls-3{fill:#1f2535;}.cls-4{fill:#e89776;}.cls-5{fill:#242851;}.cls-6{fill:#f5a987;}.cls-7{fill:#e28c72;}.cls-8{fill:#282c34;}.cls-9{fill:#694997;}.cls-10{fill:#21242b;}.cls-11{fill:#30376b;}.cls-12{fill:#f5a47f;}.cls-13{fill:#ea8f72;}.cls-14{fill:#432918;}.cls-15{fill:#fff;}.cls-16{isolation:isolate;}.cls-17{fill:#0093c7;}.cls-18{fill:#4bafe4;}.cls-19{fill:#90c1e9;}.cls-20{fill:#822c4b;}.cls-21{fill:#a73e6b;}.cls-22{fill:#cd4577;}.cls-23{fill:#212020;}.cls-24{fill:#030200;}.cls-25{fill:#184070;}.cls-26{fill:#174891;}.cls-27{fill:#8e294e;}.cls-28{fill:#2e1a09;}.cls-29{fill:#424a74;}.cls-30{fill:#494684;}.cls-31{fill:#5b59a3;}.cls-32{fill:#6673b5;}.cls-33{fill:#143a6a;}.cls-34{fill:#007fa6;}.cls-35{fill:#141211;}.cls-36{fill:#334d88;}.cls-37{fill:#ffd77b;}.cls-38{fill:#452008;}.cls-39{fill:#004b86;}.cls-40{fill:#005c9f;}.cls-41{fill:#1d6dab;}.cls-42{fill:#551c2f;}.cls-43{fill:#024084;}.cls-44{fill:#004d9d;}.cls-45{fill:#f5bd94;}.cls-46{fill:#3a190f;}.cls-47{fill:#f7bd94;}.cls-48{fill:#e2a786;}.cls-49{fill:#ededed;}.cls-50{fill:#8ac587;}.cls-51{fill:#f190b9;}.cls-52{fill:#a8cbec;}.cls-53{fill:#b6e1f8;}.cls-54,.cls-55{fill:none;stroke:#74a3d7;stroke-miterlimit:10;}.cls-54{stroke-width:12.47px;}.cls-55{stroke-width:13.46px;}</style></defs><path class="cls-1" d="M1162.57,1125.18l-294.75-124L637.88,1156.31,760,1207.68a51.75,51.75,0,0,1-8.23,5.36,67.41,67.41,0,0,1-15.06,4.39c-10.27,1.89-22.87,1.58-30.19,6.52-11.44,7.72-2.43,21.73,20.08,31.77l2,.86c24,10.08,52.93,11.82,64.7,3.88,9.56-6.45,2.2-16.7,7.91-24.19a57.7,57.7,0,0,1,9.53-7.24l121.94,51.31,95.14-64.2c-.39-.18-.8-.37-1.23-.55A112.47,112.47,0,0,0,1014,1211c-14.19-3.12-33.37.66-45.63-4.5-15-6.68-11.95-21.85,6.53-34.33,18.69-12.61,46.07-17.69,61.16-11.34,9.36,4.17,9,10.74,12.63,16.13a27.7,27.7,0,0,0,8.43,8c.45.28,2.15,1.13,4.3,2.09,1.8.81,3.92,1.68,5.9,2.35Z"/><path class="cls-1" d="M849.72,1560.65c-7.43-5-20.25-4.7-30.68-6.62a68.22,68.22,0,0,1-15.32-4.47,53,53,0,0,1-8.36-5.44l124.09-52.22-96.69-65.24c.39-.19.81-.39,1.25-.58a113.39,113.39,0,0,1,12.72-4.66c14.4-3.17,33.91.68,46.88-4.78,14.76-6.59,11.65-22-7.15-34.68-19-12.82-46.83-18-62.62-11.33-9.05,4-8.69,10.72-12.37,16.18a28.23,28.23,0,0,1-8.58,8.2c-.45.28-2.2,1.15-4.4,2.14-1.83.82-4,1.69-6,2.37l-96.81-65.32L386.14,1460.26,619.86,1618l123.94-52.15a59.68,59.68,0,0,1,9.69,7.36c5.79,7.62-1.68,18,8,24.59,12,8.07,41.41,6.3,65.76-3.94.69-.29,1.36-.59,2-.88C852.19,1582.74,861.35,1568.5,849.72,1560.65Z"/><path class="cls-1" d="M1081.45,1266.6l123.93-52.15a58.64,58.64,0,0,1,9.7,7.35c5.8,7.63-1.68,18,8,24.59,12,8.07,41.4,6.31,65.76-3.93l2-.87c22.89-10.21,32.07-24.46,20.43-32.31-7.43-5-20.25-4.69-30.69-6.62a69,69,0,0,1-15.31-4.46,54.46,54.46,0,0,1-8.36-5.45L1381,1140.54l233.71,157.7-299.59,126.07-96.69-65.25c.38-.19.79-.37,1.2-.55a119,119,0,0,1,12.76-4.69c14.42-3.16,33.93.69,46.39-4.56,15.26-6.8,12.15-22.21-6.64-34.89-19-12.82-46.83-18-62.16-11.53-9.52,4.24-9.15,10.91-12.83,16.38a28.35,28.35,0,0,1-8.58,8.2c-.46.27-2.2,1.15-4.41,2.13-1.82.82-4,1.7-5.94,2.37Z"/><path class="cls-1" d="M1480.68,1609.09l-122-51.31a58.18,58.18,0,0,0-9.52,7.23c-5.7,7.51,1.65,17.75-7.91,24.2-11.78,7.94-40.74,6.2-64.7-3.88l-2-.86c-22.51-10-31.52-24.06-20.09-31.77,7.32-4.94,19.93-4.62,30.19-6.52a66.67,66.67,0,0,0,15.07-4.39,53.48,53.48,0,0,0,8.22-5.36l-122.08-51.38-95.24,64.27c-2-.66-4.09-1.54-5.89-2.34-2.15-1-3.85-1.82-4.29-2.09a27.93,27.93,0,0,1-8.45-8.06c-3.62-5.39-3.26-11.95-12.16-15.92-15.55-6.55-42.92-1.47-61.62,11.14-18.48,12.48-21.54,27.65-7,34.12,12.76,5.38,31.94,1.58,46.12,4.71a111.84,111.84,0,0,1,12.51,4.58l1.23.57L956,1640.21l294.76,124Z"/><path class="cls-1" d="M787.28,1101.77c0,41.37-75.38,74.91-168.36,74.91s-168.36-33.54-168.36-74.91,75.38-74.91,168.36-74.91S787.28,1060.39,787.28,1101.77Z"/><polygon class="cls-2" points="664.24 1096.75 667 1096.24 669.77 1073.06 662.51 1064.47 664.24 1096.75"/><polygon class="cls-3" points="660.92 1094.87 664.24 1096.75 663.72 1058.81 657.86 1057.47 660.92 1094.87"/><path class="cls-4" d="M686.43,1047.11l6.16,20.34s8.38,19.6,15.3,27.34c0,0,12.48,17.1-10.87,16,0,0-24.9-1.32-24.53-17.3.33-13.74-12.3-30.79-12.3-30.79-4.64-8,.06-14.56,1.63-16.4l4.32-4.93,20.94-3.66Z"/><path class="cls-3" d="M709.24,1101.09a31.35,31.35,0,0,1-27.12-8.21c-6.48-6.37-13.86-29.71-11.41-22,1,3.21-6.6-25.16-4.57-29.59l-4.32,4.93c-1.57,1.84-6.7,8.79-2.05,16.83,0,0,13.05,16.62,12.72,30.36-.37,16,24.53,17.3,24.53,17.3,14,.69,15.11-5.21,13.76-10A13.89,13.89,0,0,1,709.24,1101.09Z"/><path class="cls-3" d="M721,1107.92s3.52,6.64-7.63,6.64c0,0-41.79-2.65-41.77-20.6l0-14.46s3.29,20.64,29.09,20.69c0,0,11.46,0,5.54-7.31Z"/><path class="cls-5" d="M653.72,140.55a27.81,27.81,0,1,1-27.81-27.8A27.81,27.81,0,0,1,653.72,140.55Z"/><path class="cls-6" d="M645.85,268.71h54.76c-2.49-8-7.65-28.61.34-42.66l-55.33-36.33S655.45,250.69,645.85,268.71Z"/><path class="cls-7" d="M652,234.3c3.28,8.39,8.59,12.48,17.25,15.21A57.85,57.85,0,0,0,697,251.57c-.87-8.4-.41-17.92,3.91-25.52l-55.33-36.33s3,18.6,4.06,38.28C650.43,230.1,651.16,232.21,652,234.3Z"/><path class="cls-6" d="M711.48,238.74l2.9-8.24,7.1-24.23c1-3.85,1.44-9.11.12-12.87a38.94,38.94,0,0,1-1.13-20.11c4.51-22-5.27-33.57-5.27-33.57C702.33,119.45,672,119.55,672,119.55c-37.55,2-40.62,38.31-40.62,38.31-6,24.2,13.26,44.28,13.29,44.32,2.45,2.54,2.71,6.66,3.89,9.8a30.2,30.2,0,0,0,5.51,9.2,67.43,67.43,0,0,0,19.25,15.45c6.71,3.42,19.72,6.93,29,6.83C706.05,243.42,709.81,243.46,711.48,238.74Z"/><polygon class="cls-2" points="536.18 1101.11 538.97 1101.51 549.02 1080.44 544.91 1069.97 536.18 1101.11"/><polygon class="cls-3" points="533.64 1098.26 536.18 1101.11 547.87 1064.99 542.74 1061.86 533.64 1098.26"/><path class="cls-6" d="M573.13,1061.2c-.55,17-1.81,36,5,52,0,0,6.33,20.21-15.42,11.64,0,0-23.16-9.24-17.68-24.25,4.72-12.91-1.77-33.11-1.77-33.11a13.88,13.88,0,0,1,6.8-15l5.68-3.29h21.77Z"/><path class="cls-3" d="M577.42,1119.66a31.38,31.38,0,0,1-23.06-16.48c-4.09-8.12-3.6-32.59-3.76-24.46-.07,3.36,1.82-26,5.17-29.5l-5.68,3.29c-2.08,1.23-9.16,6.17-7.34,15.28,0,0,7,19.93,2.31,32.84-5.48,15,17.68,24.25,17.68,24.25,13,5.15,16-.08,16.25-5.08A12.36,12.36,0,0,1,577.42,1119.66Z"/><path class="cls-3" d="M586.34,1129.89s1.2,7.42-9.37,3.84c0,0-38.72-15.92-32.94-32.92l4.62-13.7s-3.51,20.6,20.91,28.93c0,0,10.85,3.68,7.59-5.14Z"/><path class="cls-6" d="M597.18,807.82C569.41,859.1,564.49,880,559.55,919c-2.88,22.68-1.92,118.21-4.89,132.46-1.24,5.91,21.21,2.67,21.21,2.67,4.1-10,69.48-229.49,69.48-229.49s7.31-22.74,1.25-26.69C616.11,778.06,609.28,785.47,597.18,807.82Z"/><path class="cls-8" d="M576.54,1058.68c4.11-10,68.81-234.07,68.81-234.07s7.31-22.74,1.25-26.69c-30.49-19.86-37.32-12.45-49.42,9.9C569.41,859.1,564.49,880,559.55,919c-2.88,22.68-7.56,114.91-10.53,129.16C549,1048.13,565.63,1067.93,576.54,1058.68Z"/><path class="cls-8" d="M721.84,437s21.34,90.33,18.48,100.19c-8.25,28.43-84.82,68.31-154.64,10.15,0,0,16-66.81,49.1-123.33C634.78,424,647,436.58,721.84,437Z"/><path class="cls-9" d="M711,253.43s27.93,54,40.4,83.62c-5.22,34.73-24.09,86.24-31.67,97.11-16.62,23.8-92.6,2.55-92.6,2.55L605.2,363.6c63.92-23,30.26-90.31,30.26-90.31l10-6.33s10.22,33.11,51.83,31.92c0,0,13.66-8.89,3.61-46.66A58.47,58.47,0,0,1,711,253.43Z"/><path class="cls-4" d="M641.43,561.5s7.35,145.72,34.31,224.1c4,11.68,50.09-3.85,50.09-3.85s23.25-125.38,21.85-177.33c-.79-29.36-11.29-92.67-11.29-92.67S650,500.46,641.43,561.5Z"/><path class="cls-4" d="M677.06,785.07l48.77-3.32s-30,248.77-32.68,259.22c0,0-21,7.58-20.54,1.56,1-14.52-16.47-126.16-17-149C654.75,856.79,656.19,833.6,677.06,785.07Z"/><path class="cls-10" d="M641.43,561.5s7.35,145.72,34.31,224.1c4,11.68,50.09-3.85,50.09-3.85s23.25-125.38,21.85-177.33c-.79-29.36-11.29-92.67-11.29-92.67S650,500.46,641.43,561.5Z"/><path class="cls-10" d="M699.19,1042.53c4.94-9.6,26.64-260.78,26.64-260.78l-48.77,3.32c-20.87,48.53-22.31,71.72-21.45,108.44.53,22.86,11.6,134.5,10.58,149C666.19,1042.53,692.69,1055.14,699.19,1042.53Z"/><path class="cls-4" d="M799.17,430.33l-37-134C748.89,260.46,729,259.58,729,259.58c-38.07,5.76-13.7,72.56-13.7,72.56l47,111.32"/><path class="cls-4" d="M906.3,530.46c-16-11.86-17.08-15.08-19.5-19.9-10.42-20.69,16.16-16.16,22.65-13.64,3.72,1.45,2.6,10.64,12.9,23.59,0,0,17.17,13.69,21.91,13.59,0,0,4.72,1.4,4.21,4.88C948.47,539,934.12,544.82,906.3,530.46Z"/><path class="cls-4" d="M796.31,422.54l108.26,81.9c3,14.93-3.86,16-3.86,16l-87.32-39.73C776,464.52,763,445.9,763,445.9s-15.28-14.31,9-28.67C772,417.23,783.09,410.88,796.31,422.54Z"/><path class="cls-4" d="M906.37,496s-4.73,9.16,7.64,8.57l13.09-7.22s3.95-1.42,3.17-5.1c0,0-1.11-2.2-5.16-.78Z"/><path class="cls-6" d="M581.8,573.68s.56,145.78,19.79,226.4c2.86,12,46.78,8.34,46.78,8.34S677,670.55,680.68,618.72c2.07-29.3,7.93-80.57,7.93-80.57S585.79,528,581.8,573.68Z"/><path class="cls-6" d="M603.07,290.81c-22.42,16.39-11,41-11,41l42.33,102.79s68.63,23.34,85.25-.46c7.58-10.87,14.6-39.69,23.81-81.24,6.27-28.24,6.69-77.58-9.21-92.19-9.17-8.43-38.84-8.26-39.06-9.26L647.15,267Z"/><path class="cls-6" d="M693.68,426.23c4.06-.74,26,7.93,26,7.93s15.8,67.36,16.7,77.59S666.85,575,588.17,544.82c0,0,39.73-93.71,45.54-113.3C640.38,409,693.68,426.23,693.68,426.23Z"/><path class="cls-9" d="M731.89,295.09s23.22,27.35,25.17,47.66c1.08,11.32-13.2,30.25-20.34,37.23C731.65,384.93,701.66,314,731.89,295.09Z"/><path class="cls-8" d="M607.45,522.5s-27.74,6.16-25.24,57c2.44,49.67,92.86,60,104.47,10C699.17,535.61,656.82,504,607.45,522.5Z"/><path class="cls-11" d="M648.83,216.2c-.2-17.15.24-16.1.24-16.1.4-5,10.23,5.79,10-.73-.93-29.88,9.92-44.11,14.17-46.41,11.52-6.24,23.69-8,33.33-6.32,15.11,2.68,14.53,22.8,14.53,22.8,12.88-73.64-69.25-50.11-69.25-50.11-40,10.51-35.88,48.2-35.88,48.2-4.9,40.47,33.45,63.86,33.45,63.86Z"/><path class="cls-12" d="M651.46,210.37a8.1,8.1,0,0,1-5.22,1.58c-5.81-.08-10.65-5.53-10.78-12.15s4.46-11.9,10.27-11.82a10.22,10.22,0,0,1,7.21,3.29c2.79,2.92,2.88,8.31,2.21,12C654.63,206.26,653.46,208.81,651.46,210.37Z"/><path class="cls-13" d="M648.08,194.14c-.34-3.48-7.37-.16-6.31,1.8a10.66,10.66,0,0,0,2.82,2.74,5.13,5.13,0,0,1,2.16,3.8c0,.2.06.8-.14.94-.91.63-3.9-2.76-4.55-3.47a5.83,5.83,0,0,1-.84-5.56,3.47,3.47,0,0,1,3.85-2.6c1.58.09,3.19.2,3.1,2.16,0,0-.07.37-.09.19Z"/><path class="cls-13" d="M645.83,197.75c.73-.73,1.43-.13,2.18.41a3.35,3.35,0,0,1,1.26,2.05,8.19,8.19,0,0,1-.88,5.8,4.36,4.36,0,0,1-3.77,2c-2.12-.06-2.75-1.93-2.83-3.72,0-.47-.06-1.6.41-1.9s.87.46,1.2.8a3.1,3.1,0,0,0,1.8.68,3.85,3.85,0,0,0,3.14-1.41,1.79,1.79,0,0,0,.33-.54c0,1.17-.07,1.42-.19.78a3,3,0,0,0-.4-.82c-.49-.82-1.32-1.37-1.87-2.14-.26-.36-.75-1.62-.38-2Z"/><path class="cls-14" d="M684.77,184.78c.2,2.08-.78,3.88-2.19,4s-2.72-1.44-2.92-3.52.78-3.88,2.19-4S684.57,182.7,684.77,184.78Z"/><path class="cls-14" d="M713.66,180.89c.08,2.09-1,3.82-2.43,3.87s-2.62-1.59-2.7-3.68,1-3.83,2.43-3.87S713.58,178.8,713.66,180.89Z"/><path class="cls-11" d="M672.32,182c5.43-5.71,18.2-5.25,18.2-5.25s.85,0,.62-2.65c0,0-.06-2.3-1.9-2.08C689.24,172,673,170.93,672.32,182Z"/><path class="cls-11" d="M721,171.06c-5.67-4.59-16.09-1-16.09-1-1.84.27-1.3,2.51-1.3,2.51.46,2.57,1.3,2.39,1.3,2.39s8.62-2.66,15.37-1.09C720.52,172.93,720.77,172,721,171.06Z"/><path class="cls-15" d="M710,211.17,689.43,215c-1.08.21-1.51.85-.93,1.42,0,0,5.92,5.92,12.59,4.67s10-8.9,10-8.9C711.38,211.49,710.88,211.11,710,211.17Z"/><path class="cls-13" d="M695.23,204.69c10.78-.78,11.37-3.61,11.37-3.61L701,189.72S702.25,201.08,695.23,204.69Z"/><path class="cls-8" d="M581.8,573.68s.56,145.78,19.79,226.4c2.86,12,46.78,8.34,46.78,8.34S677,670.55,680.68,618.72c2.07-29.3,7.93-80.57,7.93-80.57S585.79,528,581.8,573.68Z"/><path class="cls-8" d="M721.84,437s21.34,90.33,18.48,100.19c-8.25,28.43-84.82,68.31-154.64,10.15,0,0,16-66.81,49.1-123.33C634.78,424,647,436.58,721.84,437Z"/><path class="cls-9" d="M627.09,436.71s78.13,24.08,94.75.27c7.59-10.87,24.3-65.2,29.52-99.93-12.47-29.62-40.4-83.62-40.4-83.62a58.47,58.47,0,0,0-10-1.21c10.05,37.77-3.61,46.66-3.61,46.66C655.7,300.07,645.48,267,645.48,267l-10,6.33s31,64.37-28.83,93.81C606.63,367.1,605.2,436.16,627.09,436.71Z"/><path class="cls-15" d="M651.73,211.58a3.56,3.56,0,1,1-3.56-3.57A3.55,3.55,0,0,1,651.73,211.58Z"/><path class="cls-6" d="M636.62,300.2a32.1,32.1,0,0,1-1.39,45.4c-12.92,12.16-53.53,35.34-53.91,17.6-.75-34.86.62-53.8,13.54-65.95S624.47,287.28,636.62,300.2Z"/><path class="cls-6" d="M638.07,329.68,610,313.49,581.8,331.14s-16.51,105.2-10.43,129.27c6.48,25.65,18.26,6.76,23.84-.26C595.21,460.15,641.25,350.12,638.07,329.68Z"/><path class="cls-6" d="M575.63,470.68s50.48,36.05,95.27,55.65c0,0,14.81-6.21,7.4-13.05-12.56-11.62-67.51-64.24-80.19-75.88C575.63,429.72,575.63,470.68,575.63,470.68Z"/><path class="cls-6" d="M696.45,546.46c-18.27-7.9-20.09-10.79-23.54-14.92-14.87-17.76,12-19.43,18.93-18.46,3.95.56,5,9.77,18,20,0,0,19.84,9.39,24.43,8.22,0,0,4.91.28,5.21,3.78C739.44,545.1,726.81,554.07,696.45,546.46Z"/><path class="cls-6" d="M691,512.86s-7.83,6.72,3.86,10.82l14.85-1.79s4.18.17,4.84-3.54c0,0-.2-2.46-4.49-2.66Z"/><g class="cls-16"><path class="cls-17" d="M1007.25,643.73l-.66-.14c-.33-.08-.67-.16-1-.22l-.74-.13c-.24,0-.47-.09-.71-.12l-.51,57.44-95.13,64.19.6-68.55L987.9,643c-1.16.13-2.32.29-3.5.49-.25,0-.5.08-.76.13l-1.35.24-.9.18-1.31.28-.82.18-2.07.49-.55.14c-.85.22-1.7.46-2.55.71l-.45.13c-1.18.35-2.34.72-3.51,1.12l-.12,0c-1.18.4-2.34.82-3.5,1.28l-.25.09c-1.31.52-2.61,1.07-3.89,1.65a.75.75,0,0,0-.18.08c-1.3.58-2.58,1.2-3.84,1.85l-.12.07c-1.28.65-2.53,1.35-3.75,2.07l-.07,0c-1.24.73-2.46,1.5-3.63,2.29-10.5,7.09-16,15-16.09,21.82l.6-68.55c.06-6.78,5.59-14.73,16.09-21.82,1.18-.8,2.39-1.56,3.63-2.3l.07,0c1.22-.73,2.47-1.42,3.75-2.08l.13-.06c1.25-.65,2.53-1.27,3.82-1.86l.2-.08c1.27-.58,2.56-1.12,3.87-1.64l.08,0,.22-.08c1.13-.44,2.28-.86,3.43-1.26l.16-.06c1.16-.39,2.31-.75,3.47-1.1l.31-.1.19-.05c.85-.25,1.69-.48,2.53-.7l.57-.14c.68-.17,1.36-.34,2-.49l.41-.1.46-.09,1.25-.27,1-.19,1.27-.23.67-.12.16,0c1.17-.19,2.33-.35,3.49-.49l.3,0,.22,0c1-.12,2-.21,3-.28l.26,0h.33c.93-.06,1.86-.11,2.78-.13h.08c.86,0,1.71,0,2.56,0h.34l.29,0c.85,0,1.69.07,2.51.13h.08l.19,0c.85.08,1.68.17,2.51.29a2.66,2.66,0,0,1,.28,0l.19,0,1,.17c.26,0,.52.08.78.14s.63.12.94.2.44.08.65.14l.08,0c.74.18,1.45.38,2.15.6l.48.16c.71.23,1.39.48,2,.75s1,.48,1.49.73l.41.23c.16.1.34.19.5.28l.39.26.5.32c.26.18.51.36.74.54s.29.21.42.32l.14.11c.29.23.55.48.8.72l.11.1c.2.19.39.39.57.59v0h0v0l.17.19.26.3c.18.21.35.43.51.65l.23.3.11.15.22.34c.14.22.28.43.41.65s.19.32.28.48l.36.65a2,2,0,0,0,.11.2c0,.08.07.15.1.22.19.39.38.77.55,1.16l.09.19c.23.52.46,1,.68,1.58l.45,1,.21.46q.3.68.63,1.35l.36.66.2.37c.2.34.4.67.63,1s.3.42.45.64.44.59.68.89l.3.39c.32.4.66.79,1,1.18l.06.07c.37.4.77.8,1.17,1.19l.37.33c.3.28.6.56.92.83l.47.39c.32.26.65.52,1,.78l.45.33c.5.35,1,.7,1.55,1l.1,0,.16.09.1.05.23.13.16.08.27.14.2.1.32.15a2.1,2.1,0,0,0,.26.13l.34.16.4.2.25.12.48.22c.08,0,.17.07.25.12l.78.34c1.8.81,3.92,1.68,5.9,2.35L1139,541.05l-.6,68.55-95.22,64.26c-2-.66-4.1-1.54-5.9-2.34l-.78-.35a.42.42,0,0,0-.14-.06l-.59-.28-.22-.11-.44-.2-.27-.13-.33-.17-.21-.09L1034,670a1.19,1.19,0,0,0-.16-.08l-.27-.14-.12-.07-.22-.11-.08-.05a.74.74,0,0,1-.13-.08h0c-.54-.33-1-.68-1.54-1l-.48-.35c-.33-.25-.66-.5-1-.76l-.25-.2-.23-.2c-.31-.27-.61-.53-.9-.8l-.38-.36c-.41-.39-.8-.79-1.16-1.18h0l-.08-.09c-.35-.38-.68-.77-1-1.15l-.3-.39c-.24-.3-.47-.6-.69-.91,0-.07-.11-.14-.16-.22l-.28-.41a10.62,10.62,0,0,1-.63-1c-.09-.15-.17-.31-.26-.47s-.2-.35-.28-.52l0,0c-.23-.46-.44-.91-.65-1.37-.05-.13-.11-.26-.16-.38l-.54-1.23c-.2-.47-.4-.94-.61-1.41l-.12-.26c-.17-.37-.34-.73-.52-1.1-.08-.14-.15-.3-.23-.44s-.23-.43-.35-.64-.18-.33-.28-.49-.27-.43-.41-.64l-.33-.49-.23-.31c-.17-.22-.33-.43-.51-.64l-.27-.31c-.23-.26-.48-.52-.73-.78l-.11-.1c-.29-.28-.61-.55-.94-.83l-.42-.31c-.23-.19-.48-.36-.74-.54l-.5-.33c-.28-.18-.58-.36-.89-.53l-.42-.23c-.46-.25-.95-.5-1.48-.73s-1.34-.53-2.05-.76l-.49-.16C1008.71,644.11,1008,643.91,1007.25,643.73Z"/><path class="cls-18" d="M613.73,640.73l.6-68.56,122.09,51.37-.5,57.06H736l.79.09c1,.11,1.95.21,2.9.28l.29,0,2.1.14.78,0,1.57.07H745c1.23,0,2.44,0,3.63,0h.47c1,0,2-.06,2.91-.12l.23,0c.89-.06,1.76-.14,2.61-.23l.65-.08c.72-.08,1.44-.19,2.14-.29l.26,0c.76-.13,1.49-.28,2.21-.43l.55-.13q1-.23,2-.51l.28-.07.39-.13,1-.33.52-.19.86-.33.47-.2.81-.36.44-.21.8-.42.36-.21c.37-.21.73-.43,1.07-.66,4.58-3.09,5.27-7.06,5.39-11.18,0-1.11,0-2.22,0-3.33,0-3.39.27-6.74,2.5-9.68a58.28,58.28,0,0,1,9.53-7.24L909.09,696.2l-.6,68.55-121.94-51.3a57.83,57.83,0,0,0-9.53,7.23c-2,2.64-2.4,5.61-2.48,8.65l0,3.32c0,4.49-.43,8.87-5.41,12.23-.34.23-.69.45-1.06.66l-.37.2-.79.42-.45.22-.8.35-.47.21-.26.1-.61.22-.5.19-1,.33-.43.14-.07,0-.18,0c-.64.19-1.32.36-2,.52l-.29.07-.24,0c-.73.15-1.47.3-2.23.43h-.05l-.16,0c-.72.12-1.46.22-2.21.31l-.31,0-.3,0c-.86.09-1.73.17-2.62.23h-.24c-1,.06-1.93.1-2.92.12l-.3,0h-.15c-1.18,0-2.39,0-3.62,0h-.59c-.51,0-1,0-1.56-.07l-.78,0c-.74-.05-1.49-.09-2.24-.16h-.14c-1-.08-1.94-.18-2.92-.28l-.77-.1c-.86-.1-1.73-.21-2.61-.34l-.32,0h-.11l-2.43-.39-.42-.08-2-.36-.91-.19-1.56-.32-1-.23-1.47-.33-.39-.09-.33-.08c-1.32-.32-2.65-.67-4-1l-.52-.14c-1.34-.39-2.68-.79-4-1.22l-.41-.14c-1.37-.45-2.73-.92-4.09-1.42l-.24-.09c-1.4-.52-2.8-1.07-4.17-1.65-.68-.28-1.34-.58-2-.86q-1.39-.63-2.7-1.26l-.89-.44c-.58-.29-1.14-.57-1.69-.86l-1-.52-1.49-.83-.91-.52-.56-.33-.89-.56-.79-.49c-.53-.34-1.06-.69-1.57-1l-.5-.34c-.66-.47-1.3-.93-1.91-1.4l-.46-.36-1.07-.86-.19-.16L684.55,729l-.55-.51c-.57-.55-1.12-1.09-1.63-1.64h0c-.44-.49-.85-1-1.24-1.44-.12-.16-.22-.31-.34-.46s-.42-.53-.6-.79l-.14-.22-.26-.4c-.22-.34-.43-.67-.62-1-.07-.14-.16-.28-.23-.42l-.13-.23c-.18-.36-.35-.7-.49-1.06a.87.87,0,0,1-.07-.17c-.1-.25-.2-.49-.28-.73s-.1-.32-.14-.47-.05-.16-.07-.23q-.15-.54-.24-1l0-.22,0-.21a9.52,9.52,0,0,1-.09-1.18v-.12q.23-24.4.43-48.8Z"/><path class="cls-19" d="M1139,541.05,844.27,417,614.33,572.17l122.09,51.37a52,52,0,0,1-8.23,5.37,67.41,67.41,0,0,1-15.06,4.38c-10.27,1.9-22.87,1.59-30.19,6.52-11.44,7.72-2.43,21.73,20.08,31.77.65.3,1.32.58,2,.87,24,10.08,52.93,11.82,64.7,3.87,9.56-6.45,2.2-16.69,7.91-24.19a58.28,58.28,0,0,1,9.53-7.24L909.09,696.2,1004.22,632l-1.22-.56a113.21,113.21,0,0,0-12.52-4.59c-14.19-3.12-33.37.67-45.63-4.49-15-6.69-12-21.86,6.53-34.33,18.69-12.61,46.07-17.69,61.16-11.35,9.36,4.17,9,10.74,12.63,16.13a27.84,27.84,0,0,0,8.43,8.06c.45.27,2.15,1.12,4.3,2.08,1.8.81,3.92,1.68,5.9,2.35Z"/></g><g class="cls-16"><path class="cls-20" d="M869.36,820.14c0,.17,0,.33,0,.5s0,.37,0,.55,0,.29-.05.44l-.06.52c0,.17-.07.34-.1.5s-.05.26-.08.39-.09.34-.14.51-.07.24-.11.36a1.31,1.31,0,0,1-.08.21,10.6,10.6,0,0,1-.58,1.4s0,0,0,0a10.48,10.48,0,0,1-.77,1.27,2.39,2.39,0,0,1-.13.21,14.73,14.73,0,0,1-1,1.17l-.29.31-.33.34-.4.37-.37.33-.35.28-.67.52-.37.25-.77.5-.35.22c-.23.14-.47.26-.71.39l-.4.23-1.18.56a32.28,32.28,0,0,1-4.93,1.59,43,43,0,0,1-4.24.8c-1.38.21-2.8.36-4.24.48-2,.16-4.06.25-6.14.31-4.54.13-9.21.09-13.74.21-2,.07-4.06.15-6,.31l.61,69.69q3-.24,6-.31c4.53-.13,9.19-.09,13.73-.22q3.12-.08,6.14-.31c1.45-.12,2.86-.28,4.24-.47s2.87-.48,4.24-.81a32.28,32.28,0,0,0,4.93-1.59c.41-.18.81-.37,1.19-.57l.33-.18c.27-.14.53-.29.79-.44l.08,0,.22-.15c.28-.16.55-.34.81-.51l.36-.26.67-.51.2-.16.15-.14c.13-.1.25-.21.37-.32l.4-.37.33-.33.21-.22.08-.1a11.68,11.68,0,0,0,.95-1.18l.06-.07.08-.13a12.77,12.77,0,0,0,.77-1.28h0a11.52,11.52,0,0,0,.59-1.42.37.37,0,0,0,0-.11.31.31,0,0,1,0-.08c.05-.14.08-.28.12-.41l.13-.46c0-.14.06-.28.08-.42a3.59,3.59,0,0,0,.08-.35s0-.08,0-.12c0-.19,0-.38.07-.56s0-.27,0-.4l0-.63c0-.1,0-.2,0-.29v-.15Z"/><path class="cls-20" d="M813.18,837.28l-.08,0A114.83,114.83,0,0,0,800.46,842c-.44.19-.86.38-1.25.58l.61,69.67,1.25-.58A119.4,119.4,0,0,1,813.71,907l.07,0c1.1-.24,2.23-.44,3.37-.61,1.38-.2,2.78-.35,4.21-.46l-.61-69.69c-1.43.12-2.84.27-4.21.47C815.39,836.84,814.27,837,813.18,837.28Z"/><path class="cls-21" d="M896.51,977.45l-.62-69.69L771.81,960l.51,58c-14.41,1.73-27.36.38-34.35-4.34-4.65-3.14-5.35-7.16-5.47-11.33l0-3.45c0-3.43-.27-6.83-2.53-9.81a60.53,60.53,0,0,0-9.68-7.36l-124,52.15.61,69.69,124-52.16a59.44,59.44,0,0,1,9.68,7.36c2,2.66,2.42,5.67,2.51,8.74l0,3.45c0,4.55.45,9,5.5,12.4,12,8.07,41.4,6.31,65.75-3.94.69-.29,1.37-.58,2-.88,16.2-7.22,25.52-16.47,25.46-24q-.23-24.81-.44-49.59Z"/><path class="cls-20" d="M860.06,832.5l.61,69.68c-13,5.46-32.47,1.62-46.89,4.78a116.36,116.36,0,0,0-12.71,4.66l-1.25.58-.61-69.67c.39-.2.81-.39,1.25-.58a117,117,0,0,1,12.72-4.67C827.58,834.12,847.09,838,860.06,832.5Z"/><polygon class="cls-20" points="596.31 1033.82 362.59 876.13 363.2 945.8 596.92 1103.51 596.31 1033.82"/><path class="cls-22" d="M826.17,976.51c-7.43-5-20.25-4.7-30.68-6.62a67.7,67.7,0,0,1-15.32-4.47,53,53,0,0,1-8.36-5.44l124.08-52.22-96.68-65.23c.39-.2.81-.39,1.25-.58a117,117,0,0,1,12.72-4.67c14.4-3.16,33.91.68,46.88-4.78,14.76-6.58,11.65-22-7.15-34.68-19-12.82-46.83-18-62.62-11.32-9,4-8.69,10.71-12.37,16.18a28.35,28.35,0,0,1-8.58,8.2c-.46.27-2.2,1.15-4.4,2.13-1.82.82-4,1.7-6,2.37l-96.8-65.32L362.59,876.12l233.72,157.7,124-52.15a60.53,60.53,0,0,1,9.68,7.36c5.79,7.62-1.68,18,8,24.59,12,8.07,41.41,6.3,65.76-3.94.69-.29,1.36-.58,2-.88C828.63,998.6,837.8,984.36,826.17,976.51Z"/></g><path class="cls-1" d="M1446.83,1243.61c0,41.37,75.38,74.91,168.36,74.91s168.35-33.54,168.35-74.91-75.37-74.91-168.35-74.91S1446.83,1202.24,1446.83,1243.61Z"/><path class="cls-23" d="M1558.47,1226.81c-11.89,12-31.5,18.36-31.5,18.38-16.52,4.19-26.25-6.8-26.25-6.8-3.54-5,.77-7.69.77-7.69,34.85-26.5,45.28-34,45.28-34h32c1.57,12.87.7,18,.7,18a27.74,27.74,0,0,1-17.55,10.64c-.66.11-1.89-.86-2.51-.6Z"/><path class="cls-24" d="M1501.34,1230.81a8.58,8.58,0,0,0,.67,2.18c2.7,5.8,10.23,8.2,16.2,8.11,7.16-.1,13.67-3.61,19.91-6.76a88.74,88.74,0,0,0,16.5-11.19c3.61-3,8.21-4.39,12.48-6.24,4.8-2.1,8.42-5.36,12.58-8.48,0,3.45-.22,6.31-.22,6.31a27.74,27.74,0,0,1-17.55,10.64c-.66.11-1.89-.86-2.51-.6l-.93,2c-11.89,12-31.5,18.36-31.5,18.38-16.52,4.19-26.25-6.8-26.25-6.8C1497.57,1234,1500.62,1231.34,1501.34,1230.81Z"/><path class="cls-4" d="M1582.29,937.24c-35.58,39.28-49.68-2.27-49.68-2.27l-4.4-241.43c-.47,3.59-1.65-24.35,43.26-18.3s56.13,23.49,56.13,23.49S1603,865.49,1582.29,937.24"/><path class="cls-4" d="M1532.39,931.92s18,254.26,19.52,263.18c0,0,21.95,4.86,22-.2.25-12.18,25.31-161,25.63-180.11.82-48.45-11.67-57.61-24.13-90.25C1575.45,924.54,1532.3,892.63,1532.39,931.92Z"/><path class="cls-25" d="M1593,946.38c20.67-71.75,34.6-247.65,34.6-247.65s-11.34-17.46-56.13-23.49-43.73,21.89-43.26,18.3c0,0-13.61,130.92-1.15,249.91C1527.06,943.45,1565.43,963.82,1593,946.38Z"/><path class="cls-6" d="M1660.89,564c6.35,22.59,32.54,108.81,32.54,108.81-93.77,112.18-164.41,14-165.34,3.78-1.12-12.24,12.55-59,15-109.45C1543.12,567.17,1568.69,527.81,1660.89,564Z"/><path class="cls-25" d="M1528.63,704.71c-4.44-30.22,4.77-60.69,9.51-91.23H1675.5c8.79,29.28,17.93,59.36,17.93,59.36s5.87,69.26-53,77.55C1640.48,750.39,1538,768.17,1528.63,704.71Z"/><path class="cls-6" d="M1684.88,942.53c-29.36,44.11-49.46,5.11-49.46,5.11l-47.64-235.2c.08,3.62,1.43-30.63,46.75-31.3s59,14.91,59,14.91,1.19,172.46-8.63,246.48"/><path class="cls-6" d="M1634.74,944.65s47.17,267.94,50,276.54c0,0,22.42,1.55,21.77-3.46-1.56-12.09,2.48-181,0-200-6.38-48-13-56.29-30.19-86.73C1676.24,931,1628.84,905.82,1634.74,944.65Z"/><path class="cls-23" d="M1682.55,1216l-13.27,40.47s2.74,36.22,31.79,13.77l8.65-8.38a9.28,9.28,0,0,0,3.12-8.9l-2.58-15.5-3.08-21.46S1689,1203.66,1682.55,1216Z"/><path class="cls-24" d="M1701.07,1265.08l8.65-8.38a9,9,0,0,0,3-4.63l.15.9a9.28,9.28,0,0,1-3.12,8.9l-8.65,8.38c-29,22.45-31.79-13.77-31.79-13.77l.51-1.58C1671.43,1263.45,1677.83,1283,1701.07,1265.08Z"/><path class="cls-26" d="M1629.61,954.13c-16.55-48.56-47.78-249.42-47.78-249.42.07,3.61,9.35-48,54.67-48.64s56.93,16.77,56.93,16.77,14.15,196.59,4.34,270.61C1697.77,943.45,1665.94,980.21,1629.61,954.13Z"/><path class="cls-4" d="M1550.08,409.52s-76.73,90.24-114.88,120.13c0,0-25.64-9.47-24.85-26.9,0,0,56.17-83.1,91.44-132.26C1501.79,370.49,1549.48,356.76,1550.08,409.52Z"/><path class="cls-4" d="M1421.46,495.21S1337.67,544,1303,560.29c0,0-6.23,9.75,3.82,10.67,16.79,1.54,133.54-38,136.39-47.18C1456.49,481,1421.46,495.21,1421.46,495.21Z"/><path class="cls-4" d="M1498,399.45a31.28,31.28,0,0,0,40,18.5,30.85,30.85,0,0,0,18.14-39.86,31.27,31.27,0,0,0-40-18.5A30.84,30.84,0,0,0,1498,399.45Z"/><path class="cls-27" d="M1536.31,357.87s-27.35-9.59-46.15,17.25l-66.93,97.08S1437,503.11,1469.6,520C1469.6,520,1589.42,409.63,1536.31,357.87Z"/><path class="cls-12" d="M1613.84,325.27s5.53-10.62,17.71-31c0,0,25.93-26.63,11.41-60.1,0,0-8-28-56.92-23.92C1586,210.24,1581.35,287.27,1613.84,325.27Z"/><path class="cls-6" d="M1615.78,281.66s-8.23,76.77,9.33,82.58l-62.62-3.73s9.84-23.2-1.6-40.31Z"/><path class="cls-7" d="M1565.93,347.1c1-17.54-1.16-21.1-5-26.9l54.89-38.54s-2.66,24.8-1.73,47.28C1598.16,344,1585,347.52,1565.93,347.1Z"/><path class="cls-6" d="M1518.33,357.71c-13.95,10.19-15.55,34.55-10.56,49.77,5.71,17.48,8,39.78,13.7,65,7.75,34.25,13,60.63,21.65,94.64,7.16,28.13,120.19,5.46,120.19,5.46l40.51-138.43s7-36.15-25.76-48.17c0,0-34.49-18.62-59.74-27.18-22.3-7.55-30.37-8.25-53.27-6.85C1565.05,352,1534.38,353.13,1518.33,357.71Z"/><path class="cls-28" d="M1538.47,216.06c-3.23,14.73-6.89,22.42-2.82,35.92,3.66,12.13,2.81,24.87,8.1,36.63,7.55,16.76,17.38,14.57,24.9-.85,7.69-15.79,15.71-37.12-1.66-48.81-11.15-7.51-15.17-20.42-28.52-22.89Z"/><path class="cls-12" d="M1548.14,331.14l-2.6-8.68-6.59-32.1a32.46,32.46,0,0,1,.51-13.34c1.11-4.37,2-8.95,1.14-13.7-4-23,8.57-35,8.57-35,14.35-20.38,45.82-18.78,45.82-18.78,38.84,3.88,40.22,41.72,40.22,41.72,5.07,25.37-15.92,45.24-16,45.28-1.68,1.58-1.28,9.87-1.87,12.2-2.56,9.89-12.44,15.56-21.13,19.37-9.55,4.18-21.07,8.56-31.54,9C1560.74,337.27,1549.63,336.12,1548.14,331.14Z"/><path class="cls-28" d="M1539.74,289.77c5.1,4.6,12,2.5,17.48,5.84,3.55,2.17,5.32,2,9.21.9a14.5,14.5,0,0,1,8.78.29c3.24.94,9.12,3.76,12.26,5,4.81,1.94,10.2,1.33,13.93-3.22,3.9-4.76,5.39-5.74,7.22-11.44,3.38-10.5,14-11.13,21.3-5.24a63.05,63.05,0,0,1-10.67,14.61c-1.68,1.58-1.28,16.72-1.87,19-2.56,9.9-12.44,15.56-21.13,19.37-9.55,4.18-24.12,4.76-34.59,5.19-4,.17-12-4-13.52-9l-2.6-8.68-6.59-32.1c-.12-.56-.16-1.18-.24-1.79A9.87,9.87,0,0,0,1539.74,289.77Z"/><path class="cls-28" d="M1539,229.75c8.8,0,8.69,7.36,15.43,11.46,14.44,8.78,36.84-4.09,48.48,10.15a27.5,27.5,0,0,1,3,4.51c3.43,6.42,4.46,14.17,5.55,21.28.33,2.11-1.23,7.47.68,9.08,1.09.92,3,.65,5,0,.39,3.22-2.2,5.69-3.31,8.64s-2.85,5.49-1.28,8.49c4.06,7.7,1,6.43,1.31,21.9,2.51-3.66,8.69-8.12,10.64-9.83,5.65-4.92,11-10.28,15-16.63s6.56-13.18,9.13-20.05c4.2-11.26,6.63-23.44,3.25-35.25,0,0-2.65-27.45-25.61-30.39,0,0,2.92-17.67-39-22.35,0,0-33.13.52-35-10.91,0,0-6.7,5.72-5,14.55,0,0-13.63,4.16-19.75-11.43C1527.5,183,1516.15,224,1539,229.75Z"/><path class="cls-12" d="M1613.25,303a6.86,6.86,0,0,0,4.41,2.62c5.22,1,10.45-3.9,11.68-10.86s-2-13.36-7.21-14.31a8.43,8.43,0,0,0-7,2.16c-3,2.58-4,8.24-4,12.28C1611.1,298.13,1611.71,301,1613.25,303Z"/><path class="cls-13" d="M1618.88,286.63c.81-3.65,7.84.78,6.47,2.72a11.33,11.33,0,0,1-3.35,2.55,5.5,5.5,0,0,0-2.77,3.76c-.06.21-.17.84,0,1,.89.78,4.48-2.44,5.28-3.11a6.2,6.2,0,0,0,1.6-5.79,3.73,3.73,0,0,0-3.77-3.27c-1.68-.1-3.4-.19-3.55,1.91,0,0,0,.39.07.21Z"/><path class="cls-13" d="M1620.8,290.75c-.68-.88-1.49-.32-2.36.16a3.55,3.55,0,0,0-1.6,2,8.72,8.72,0,0,0,.19,6.28,4.68,4.68,0,0,0,3.75,2.61c2.25.21,3.16-1.7,3.48-3.59.08-.51.27-1.71-.19-2.08s-1,.38-1.38.7a3.17,3.17,0,0,1-2,.49,4.11,4.11,0,0,1-3.17-1.9,2.07,2.07,0,0,1-.27-.61c-.15,1.24-.12,1.53.1.86a3.26,3.26,0,0,1,.53-.83c.62-.8,1.57-1.29,2.25-2,.32-.34,1-1.62.66-2.06Z"/><path class="cls-13" d="M1559.31,287.86l10.59,4.08s-14.28.89-14.83-3.26c0,0,2.16-8.1,4.5-15.76C1559.57,272.92,1557.74,287.25,1559.31,287.86Z"/><path class="cls-28" d="M1577.78,272.92c0,2.24,1.24,4,2.76,4s2.74-1.8,2.74-4-1.23-4.05-2.74-4.05S1577.78,270.68,1577.78,272.92Z"/><path class="cls-28" d="M1547.25,269.52c0,2.25,1.24,4.05,2.76,4.05s2.74-1.8,2.74-4.05-1.23-4-2.74-4S1547.25,267.29,1547.25,269.52Z"/><path class="cls-28" d="M1574.92,265.07c-1,.2-1.23-1.13-1.23-1.13a4.59,4.59,0,0,1,.07-2.37,2.31,2.31,0,0,1,1.17-1.2c2.56-.35,7.5.28,11.7,1.53,2.32.69,6.08,2.42,6.33,4.56.07.64.13,1.74-.6,1.94A95.49,95.49,0,0,0,1574.92,265.07Z"/><path class="cls-28" d="M1540.21,261.59a83.1,83.1,0,0,1,13.65,1.42c.89.47,1.48-.74,1.49-.74a4.72,4.72,0,0,0,.58-2.3,2.31,2.31,0,0,0-.81-1.47,24.78,24.78,0,0,0-10.11-1.58,19.65,19.65,0,0,0-5.09.69S1539.63,258.42,1540.21,261.59Z"/><path class="cls-15" d="M1553.4,300.78c-.86,0-1.33.39-1,1,0,0,3.81,7.16,10.48,8s12.11-5.23,12.11-5.23c.53-.58.06-1.17-1-1.32C1574,303.21,1562.47,301.75,1553.4,300.78Z"/><path class="cls-26" d="M1683.94,645.42s24.06,38.82,0,82.34-97.5,27.65-97.72-28.71C1586,643.37,1636.68,622.08,1683.94,645.42Z"/><path class="cls-27" d="M1565.05,352s-30.67,1.13-46.72,5.71c-13.95,10.19-15.55,34.55-10.56,49.77,5.71,17.48,8,39.78,13.7,65,7.75,34.25-2,59.29,6.62,93.3,7.15,28.13,156.73,0,156.73,0l19-131.63s7-36.15-25.76-48.17c0,0-32.93-18.08-58.18-26.63,0,0,3.94,26.63-39.47,19.27C1580.41,378.67,1553.89,372.28,1565.05,352Z"/><path class="cls-27" d="M1684.82,565.83c6.35,22.6,11.37,98.77,11.37,98.77-17.19,71.32-175.39,20-176.33,9.78-1.11-12.25,3.73-70.53,6.21-121C1526.07,553.42,1592.61,529.62,1684.82,565.83Z"/><path class="cls-6" d="M1638.19,437.57c10.32,21,48.64,127,61,143.7,3.28,4.45,34.86,24.8,42-2.93-17.4-110-43.73-172.73-43.73-172.73s-30.75-25.64-55.31-1.94C1642.06,403.67,1630.91,423,1638.19,437.57Z"/><path class="cls-6" d="M1633.84,418.8a37,37,0,1,0,42.64-30.34A37,37,0,0,0,1633.84,418.8Z"/><path class="cls-27" d="M1670.33,382s31.8,11.93,39.33,37.73L1729.29,490s-25.72,37.41-64.06,36.16L1627.36,442S1601.88,394.74,1670.33,382Z"/><path class="cls-4" d="M1263.22,582.91l9.79-.27s-17.86,4.59-23.62-1.22c0,0-1.47-.91.82-3,0,0,15.8-.53,22.74-2.53,0,0-15.63,3.78-26.76,2.65,0,0-4.36-2.86.34-5.45-3.55-1.38-.52-3.72-.52-3.72a62.38,62.38,0,0,1,10.64-4.1,254.66,254.66,0,0,0,24.39-9.51s-10.31-6.75-6.45-12.18l15.9,8.38,14.39,9.25,1.92,9.74-15,10.41s-14.55,5.84-22.79,6.13C1269,587.5,1245.4,586.65,1263.22,582.91Z"/><path class="cls-26" d="M1629.61,954.13l41.14,256.39s13.63,13.14,45.26,0l5.25-125.27s9.28-82.77-23.49-141.8C1697.77,943.45,1633.2,891.34,1629.61,954.13Z"/><path class="cls-25" d="M1593,946.38s17.52,25.33,1.82,120.44l-16.06,129.87s-18.47,11.07-39.26.51l-13-258.73S1538.17,894.55,1593,946.38Z"/><g class="cls-16"><path class="cls-29" d="M1292.81,633.39c0-3.12-1.65-5.95-5-8.25q-.81-.52-1.71-1l-.56-.28c-.43-.21-.87-.41-1.31-.59l-.33-.15-.3-.09c-.71-.28-1.45-.53-2.21-.76h0c-.77-.22-1.57-.42-2.38-.6l-.27-.07-.34-.07c-1-.21-1.93-.39-2.92-.56h-.08l-.25,0c-1-.16-2.06-.31-3.11-.45l-.33-.05-3.33-.39a1.08,1.08,0,0,0-.19,0l-2.7-.31c-1.06-.12-2.11-.24-3.16-.38l-.57-.07c-1-.14-2-.28-3-.44-.52-.09-1-.17-1.55-.27-1-.19-2.1-.41-3.15-.64l-.57-.12c-.76-.17-1.52-.36-2.28-.55H1251c-.77-.2-1.52-.41-2.27-.62l-.71-.22c-.52-.15-1-.31-1.54-.48-.25-.08-.49-.16-.74-.26-.52-.17-1-.36-1.54-.55l-.58-.22c-.64-.25-1.27-.52-1.87-.79a54.46,54.46,0,0,1-8.36-5.45l.61,69.68a54.17,54.17,0,0,0,8.36,5.45c.6.27,1.23.53,1.87.8l.14.05.44.16c.51.19,1,.38,1.55.56l.72.25,1.58.5.44.13.23.06c.75.22,1.52.44,2.29.63h0l2.33.55.23,0,.31.07c1.06.23,2.12.45,3.17.64l1.3.23.26,0c1,.16,2,.3,3,.44l.61.08,3.1.37h0l2,.23.83.09,3.37.41a2.06,2.06,0,0,0,.26,0c1.06.14,2.11.29,3.15.47l.33,0c1,.17,2,.36,2.92.56l.62.14c.81.18,1.61.38,2.38.61s1.53.49,2.25.76l.63.25c.45.18.88.38,1.31.59l.56.27a16,16,0,0,1,1.71,1c3.4,2.29,5,5.13,5.05,8.24Z"/><path class="cls-30" d="M1191.85,786.84l.71-.16,1-.21.81-.14.68-.12.52,58.39,96.68,65.25-.61-69.68-80.09-54c1.17.14,2.35.3,3.53.5l.82.14,1.33.24,1,.19,1.27.26.89.2,2.07.5.57.15c.86.22,1.72.46,2.58.71l.49.14c1.19.36,2.36.73,3.54,1.13l.17.06c1.18.4,2.34.83,3.5,1.28l.28.11c1.33.52,2.65,1.08,4,1.67l.19.08c1.32.59,2.61,1.23,3.89,1.89l.13.06c1.29.67,2.57,1.38,3.81,2.11l.06,0q1.9,1.13,3.7,2.34c10.68,7.2,16.29,15.29,16.35,22.18q-.31-34.85-.61-69.69c-.06-6.88-5.68-15-16.35-22.17q-1.8-1.22-3.7-2.33l-.06,0c-1.25-.74-2.52-1.44-3.81-2.11l-.14-.06c-1.27-.66-2.57-1.3-3.88-1.89l-.2-.08c-1.3-.59-2.61-1.15-3.94-1.67l-.08,0-.2-.07c-1.17-.46-2.34-.9-3.53-1.3l-.13,0c-1.19-.41-2.38-.78-3.58-1.13l-.27-.09-.18,0c-.86-.26-1.73-.49-2.6-.72l-.53-.13-2.12-.51-.4-.1-.44-.09-1.33-.28-.92-.18c-.44-.09-.89-.17-1.34-.24l-.64-.12-.17,0c-1.2-.2-2.39-.36-3.57-.5l-.28,0-.21,0c-1-.11-2.06-.21-3.07-.29l-.25,0h-.34c-1.89-.12-3.73-.16-5.54-.11h-.6c-.87,0-1.74.07-2.58.14h-.06l-.15,0c-.89.08-1.75.17-2.6.3l-.28,0-.19,0-1,.17-.74.14-1.06.22-.56.13h-.08c-.75.19-1.49.4-2.2.62l-.48.16c-.72.24-1.42.49-2.09.77s-1,.5-1.51.74l-.42.24-.51.28-.4.26-.51.33c-.26.18-.51.36-.75.55l-.43.32a1.58,1.58,0,0,1-.15.12c-.28.24-.56.48-.81.72l-.09.1c-.21.2-.41.4-.6.61-.06.06-.11.13-.16.19l-.27.31c-.18.22-.36.43-.52.66a3.4,3.4,0,0,0-.23.3l-.12.17a3.26,3.26,0,0,0-.22.34c-.15.22-.29.43-.42.65s-.19.33-.29.5l-.35.63-.12.23-.12.24c-.18.37-.36.75-.53,1.12,0,.09-.07.17-.11.25l-.66,1.5c-.16.38-.32.77-.49,1.15l-.2.44c-.2.46-.42.91-.65,1.36-.12.25-.25.48-.38.71l-.18.34c-.2.34-.41.69-.64,1l-.44.64-.7.92-.31.39c-.32.4-.66.79-1,1.18l-.08.1c-.38.4-.78.81-1.2,1.21l-.36.35-.94.83-.49.4c-.32.26-.66.52-1,.78l-.47.35c-.51.36-1,.71-1.57,1l-.18.09-.07,0-.22.12-.13.06-.26.13-.18.1-.28.14-.26.12-.28.14-.33.16a3.13,3.13,0,0,1-.32.15l-.36.17-.5.23-.24.12c-.25.12-.52.24-.8.35-1.82.82-4,1.7-5.94,2.37l-96.81-65.32.61,69.69,96.81,65.31c2-.67,4.12-1.55,6-2.36l1.5-.69s0,0,0,0c.22-.09.43-.19.63-.29l0,0,.44-.21.18-.1.33-.15.2-.11.25-.13a1.24,1.24,0,0,0,.2-.1l.17-.08.18-.1a.3.3,0,0,1,.11-.06l.11-.06s0,0,0,0c.55-.34,1.07-.7,1.58-1.06l.45-.34c.35-.25.69-.52,1-.79l.25-.19.23-.2c.32-.28.63-.55.93-.83l.38-.35c.41-.4.81-.8,1.19-1.21v0l.08-.09c.35-.39.68-.77,1-1.17l.32-.4c.24-.3.46-.6.68-.91.06-.08.13-.16.18-.24l.28-.39c.22-.34.44-.69.63-1,.08-.12.14-.25.21-.37s.23-.42.33-.64c0,0,0,0,0,0,.23-.45.45-.91.66-1.37.06-.15.12-.29.19-.43.16-.38.33-.76.49-1.15l.66-1.52a2.14,2.14,0,0,0,.1-.22c.18-.39.36-.76.55-1.15.08-.15.15-.3.23-.44s.23-.45.36-.66.18-.33.28-.49.27-.44.42-.65.22-.34.34-.51l.23-.31.52-.65.27-.31c.24-.27.48-.53.75-.79l.1-.1c.3-.29.63-.57,1-.84l.41-.33.76-.55.51-.33.91-.55.42-.22c.47-.26,1-.51,1.51-.75s1.37-.53,2.09-.77l.48-.16C1190.37,787.23,1191.09,787,1191.85,786.84Z"/><polygon class="cls-31" points="1591.2 714.1 1591.82 783.78 1292.22 909.85 1291.61 840.17 1591.2 714.1"/><path class="cls-32" d="M1057.9,682.46l123.93-52.15a59.11,59.11,0,0,1,9.7,7.35c5.79,7.63-1.68,18,8,24.6,12,8.07,41.4,6.3,65.76-3.94.68-.29,1.35-.57,2-.87,22.89-10.2,32.06-24.46,20.43-32.31-7.44-5-20.25-4.69-30.69-6.62a67.92,67.92,0,0,1-15.31-4.46,54.46,54.46,0,0,1-8.36-5.45l124.09-52.21L1591.2,714.1,1291.61,840.17l-96.69-65.24c.38-.19.79-.38,1.2-.56a116,116,0,0,1,12.76-4.68c14.42-3.17,33.93.68,46.39-4.56,15.26-6.81,12.15-22.22-6.64-34.9-19-12.82-46.83-18-62.16-11.53-9.52,4.24-9.15,10.92-12.84,16.38a28.19,28.19,0,0,1-8.57,8.2c-.46.27-2.2,1.15-4.41,2.13-1.82.82-4,1.7-5.94,2.37Z"/></g><path class="cls-12" d="M637.79,1010.79s10.25-6.65.41-18.92c-25.44-1.62-55.36-15.36-55.36-15.36-37.4-11.77-89.92-69.66-113.83-96-26.86-29.58-67.52-4.47-45.7,29.3,40.83,63.19,148.13,104.85,213.94,102.38"/><path class="cls-33" d="M359.37,1304.71c15.63-73,20.31-242.12,20.31-242.12s-12.52-16.62-57.63-19.52-42.1,24.87-41.89,21.26c0,0,0,119.67,20.75,237.51C300.91,1301.84,333.07,1324,359.37,1304.71Z"/><path class="cls-34" d="M280.62,1072.62c-4.45-30.22,4.76-60.69,9.51-91.23H427.48c8.79,29.28,17.93,59.36,17.93,59.36s5.88,69.26-53,77.56C392.46,1118.31,290,1136.08,280.62,1072.62Z"/><path class="cls-1" d="M200,1599.86c0,58.23,106.09,105.43,237,105.43s237-47.2,237-105.43-106.09-105.44-237-105.44S200,1541.63,200,1599.86Z"/><path class="cls-23" d="M574.79,1596l-7.82-.45c-2.67-.41-2.65,3.78-3,3.93-8.19,3.22-15.46,5.74-18.53,5.87,0,0-14.48-1.88-16-6.27l2-26.86c16.14-1.36,33-4.47,33-4.47l35.47-5c17.06-1.77,20.16,4.4,20.16,4.4S630.49,1582.8,574.79,1596Z"/><path class="cls-35" d="M553.27,1594.46a42.55,42.55,0,0,1,9.17-3c17.49-3.06,34.6-4.8,49.17-16,3.55-2.75,6.06-6.16,6.32-10.24a6.39,6.39,0,0,1,2.11,2s10.45,15.6-45.25,28.84l-7.82-.45c-2.67-.41-2.65,3.78-3,3.93-8.19,3.22-15.46,5.74-18.53,5.87,0,0-14.48-1.88-16-6.27l.5-6.54C535.66,1595.89,545.83,1597.9,553.27,1594.46Z"/><path class="cls-23" d="M337.89,1589.39l-7.83-.45c-2.67-.41-2.65,3.78-3,3.93-8.18,3.22-15.45,5.74-18.53,5.87,0,0-14.48-1.88-16-6.27l2-26.86c16.14-1.36,33-4.48,33-4.48l35.46-5c17.07-1.78,20.17,4.39,20.17,4.39S393.59,1576.15,337.89,1589.39Z"/><path class="cls-35" d="M316.36,1587.8a42.7,42.7,0,0,1,9.17-3c17.5-3.06,34.6-4.8,49.17-16,3.56-2.74,6.07-6.15,6.32-10.23a6.42,6.42,0,0,1,2.12,2s10.45,15.61-45.25,28.85l-7.83-.45c-2.67-.41-2.65,3.78-3,3.93-8.18,3.22-15.45,5.74-18.53,5.87,0,0-14.48-1.88-16-6.27l.49-6.54C298.75,1589.24,308.93,1591.24,316.36,1587.8Z"/><path class="cls-33" d="M334.88,1567.57c5.82-6.93,24.88-261.63,24.88-261.63,3.16-39.15-61.95-22.72-61.95-22.72-9.48,39-7.94,46.32-10.92,94.69-1.18,19.1,1.86,177.33,1.15,189.5C288,1567.41,318.26,1587.43,334.88,1567.57Z"/><path class="cls-36" d="M384.83,1016.79s39.09,66.56,15,110.08-125.42-3.85-119.19-54.24C287.52,1017.37,337.58,993.45,384.83,1016.79Z"/><path class="cls-6" d="M412.87,931.94c6.35,22.6,32.54,108.81,32.54,108.81-71.77,67.68-164.4,14-165.34,3.79-1.12-12.25,12.55-59,15-109.46C295.1,935.08,320.66,895.72,412.87,931.94Z"/><path class="cls-36" d="M499.23,1292.07c-7.62-74.28-60.53-263.77-60.53-263.77s-15.47-14.23-59.27-3.11-48.66,68.31-49.57,64.81c0,0,51,119.93,118.79,225.6C448.65,1315.6,481.42,1332.37,499.23,1292.07Z"/><path class="cls-36" d="M565.32,1564.73c-1.29-9-67.35-275.09-67.35-275.09-15.54-32.82-60.2,1.75-60.2,1.75.16,23.82.79,52.55,16.18,98.5,6.07,18.15,62.23,182.51,66.13,194C520.08,1583.94,553.27,1594.46,565.32,1564.73Z"/><path class="cls-4" d="M243.38,759.46s-7.1,119.53-2.57,167.79c0,0,0,21.93,38.62,32.92,0,0,14.05-133.08,25.49-192.5C304.92,767.67,282.11,723.61,243.38,759.46Z"/><path class="cls-4" d="M286.51,790.33A31.26,31.26,0,0,1,245.59,774a30.85,30.85,0,0,1,16.47-40.58A31.28,31.28,0,0,1,303,749.76,30.83,30.83,0,0,1,286.51,790.33Z"/><path class="cls-37" d="M270.31,725.62s-28.23,6.54-29.74,39.28L236,882.72s28.2,18.73,64.74,15.54C300.74,898.26,342.89,740.92,270.31,725.62Z"/><path class="cls-6" d="M376.91,650.83s.25,42.07,3.92,84l-55.51-9.2s8.13-19.14-3.31-36.25Z"/><path class="cls-6" d="M270.31,725.62c-13.94,10.19-15.54,34.56-10.57,49.77,5.72,17.48,8,39.78,13.71,65.05,7.76,34.25,13,60.63,21.65,94.64,7.16,28.13,120.19,5.47,120.19,5.47l40.52-138.44s7-36.14-25.77-48.17c0,0-34.49-18.62-59.74-27.18-22.29-7.55-30.37-8.25-53.26-6.85C317,719.91,286.37,721,270.31,725.62Z"/><path class="cls-36" d="M435.92,1013.34s24.05,38.81,0,82.33-97.5,27.65-97.72-28.71C338,1011.28,388.67,990,435.92,1013.34Z"/><path class="cls-37" d="M317,719.91s-30.67,1.13-46.73,5.71C255.8,736.23,256.06,757,258.86,772.8c5.35,30.12,10.77,60.55,13.57,91,1.24,13.5,4.61,41,5.61,54.49,1,13.12,5.13,20.34,18.55,27.28,10.2,5.26,17.78,1.08,28.9,1.38,28.26.77,56.17-2.32,84.17-5.79,1.19-.14,44.9,29.35,30.52,7.65l15.63-146.73s7-36.14-25.77-48.17c0,0-23-14.42-48.27-23C381.77,731,337.86,732.09,317,719.91Z"/><path class="cls-12" d="M395.58,699.43l2.37-9.14,5.62-33.7a34,34,0,0,0-1.05-13.88c-1.33-4.5-2.39-9.24-1.73-14.22,3.22-24.13-10.3-36.12-10.3-36.12C374.76,571.7,342,574.58,342,574.59c-17,2.57-31.8,9.59-40.24,25.07-7.66,14-11.83,31.15-7.28,46.83,5,17.18,14.61,30.6,27.35,42.79C330,697.07,338.34,698,349,701.94c7.43,2.71,21.65,4.29,29.55,4.35C382.7,706.3,394.22,704.68,395.58,699.43Z"/><path class="cls-38" d="M389.12,606.36l-5.22,20.92c-5.95,2.61-8.33,4.91-7.52,12.74l1.89,17.27-4.7,1.81c.39-6.92-9.21-7-9.21-7-7-.4-8.21,5.58-7.81,11.34,1,15-4.4,38.69-16.93,42.87-4.95,1.65-14.28,3.37-15.85-3.34-1.91-8.2-17.44-24.48-17.44-24.48C287.67,660.41,283,629.57,291.81,606a57,57,0,0,1,13.4-19.8c11.63-11.12,26.28-16.6,41.71-18.61,0,0,21.27-2.59,33.23,5.8,7.4,5.21,12.27,10,15.43,14.12C395.58,587.53,400.12,597.14,389.12,606.36Z"/><path class="cls-12" d="M372,673.77a8.62,8.62,0,0,1-5.46,2.06c-6.21.3-11.73-5.18-12.33-12.24s3.95-13,10.16-13.32a11,11,0,0,1,7.92,3c3.18,2.93,3.64,8.67,3.18,12.69C375.09,669.19,374,672,372,673.77Z"/><path class="cls-13" d="M367.28,656.69c-.61-3.69-7.88.33-6.62,2.35a11.36,11.36,0,0,0,3.2,2.73,5.48,5.48,0,0,1,2.56,3.9c0,.22.12.86-.09,1-.92.74-4.33-2.69-5.08-3.4a6.25,6.25,0,0,1-1.29-5.88,3.74,3.74,0,0,1,4-3c1.69,0,3.42,0,3.45,2.1,0,0-.06.4-.08.21Z"/><path class="cls-13" d="M365.12,660.69c.73-.84,1.52-.23,2.35.29a3.51,3.51,0,0,1,1.48,2.11,8.69,8.69,0,0,1-.53,6.24,4.66,4.66,0,0,1-3.9,2.4c-2.26.08-3.06-1.87-3.27-3.78-.05-.5-.18-1.72.31-2.06s1,.44,1.34.78a3.17,3.17,0,0,0,2,.59,4.09,4.09,0,0,0,3.27-1.71,2.25,2.25,0,0,0,.3-.6c.08,1.25,0,1.53-.15.85a3.1,3.1,0,0,0-.48-.85c-.58-.83-1.5-1.38-2.14-2.16-.29-.36-.91-1.67-.54-2.1Z"/><path class="cls-6" d="M677,998.07c-2.88-4.25-.36-6.47-6.19-6.66-6.63-.22-12.57-3.49-17.07-3.37-7.85.22-37.46,7.13-17.59,24.08,4.63,4,17.87,21.65,27,16.41,13.54-7.76,8.94-4.9,15.82-21.74Z"/><path class="cls-6" d="M400.8,780.62a34.75,34.75,0,1,0,48-10.46A34.76,34.76,0,0,0,400.8,780.62Z"/><path class="cls-37" d="M444.37,909.42c4.51,47.39,7.43,163.45,7.43,163.45-16.82,44.89-177.26,7-178.19-3.23-1.12-12.24,2.17-98.49,4.65-148.93C278.26,920.71,352.17,873.2,444.37,909.42Z"/><path class="cls-37" d="M422.54,750c42.26,11.9,47.51,63,47.51,63l19.08,84s-48,38.07-77.28,27.36c0,0-23.84-63.4-31.32-126.59C380.53,797.8,380.83,751.38,422.54,750Z"/><path class="cls-38" d="M398.12,605.88c-4.78,3.85-10.85,1.32-16.31.06-7.44,8.73,1.46,17.45-9.81,21.68-6,2.24-14.8,2.88-21.41,4-5.29.85-10.62-.37-14.4,3.57-4.09,4.27-.22,17.57-5.05,20.12-8.44,4.46-15.07-18.66-25.84-16.83-9.18,1.56-10.81,16.14-7.59,23.3a11.67,11.67,0,0,0-2.41-1.63c-4.37-11.41-10-11.61-14.79-19.73-7.49-12.58-6.22-9.58-7.72-21.66,0-.11,1.48-5.29,1.5-5.36,3.51-12.86,9.52-15.05,12.41-20.51,3-5.76,7.75-9.8,11.65-14.87,3.6-4.68,5.41-11,9.54-15.15,6.28-6.35,16.56-9.53,25.19-10.67,9.3-1.22,18.14,4.55,27.36,2.93,3.78-.66,7.31-4.09,11.1-3.87,4.63.26,7.83,4.84,11.83,6.64,7.42,3.34,19.13,2,25.48,7.22,7,5.78,5.51,14.14,1.19,21.22-2.43,4-7.34,6.25-9.52,10.37C399.91,597.8,398.27,605.76,398.12,605.88Z"/><path class="cls-6" d="M1703.7,572.11s-38.51,67.36-69,143.31c0,0,.56,14.45,11.2,10s96.51-126.08,96.6-137.16C1742.77,559.79,1703.7,572.11,1703.7,572.11Z"/><path class="cls-6" d="M1614.21,744.33l9.27-3.15s-15.7,9.67-22.92,5.83c0,0-1.68-.44-.11-3.1,0,0,14.94-5.19,21-9.15,0,0-13.82,8.23-24.78,10.46,0,0-5-1.45-1.29-5.32-3.79-.26-1.59-3.39-1.59-3.39a62,62,0,0,1,9-7.07,254.12,254.12,0,0,0,20.48-16.3s-11.85-3.4-9.76-9.73l17.67,3.3,16.48,4.58,4.71,8.74-11.22,14.36s-12.17,9.9-20,12.61C1621.12,747,1598.3,753.19,1614.21,744.33Z"/><g class="cls-16"><path class="cls-39" d="M1226,976.67c0-3.07,1.62-5.86,5-8.11a18.53,18.53,0,0,1,1.68-1l.56-.27c.42-.2.84-.4,1.28-.58.11,0,.21-.1.33-.14l.3-.1c.7-.27,1.41-.52,2.16-.74h0c.75-.22,1.54-.41,2.33-.59l.28-.07.35-.07c.93-.2,1.87-.38,2.84-.55h.09l.31,0c1-.15,1.93-.29,2.92-.42l.38-.05c1.06-.14,2.13-.26,3.2-.39l.19,0c.24,0,.48,0,.72-.09q1.08-.1,2.16-.24l3-.37.6-.07c1-.13,2-.27,2.93-.43l1.53-.26c1-.19,2.07-.4,3.11-.63l.59-.13c.74-.16,1.48-.34,2.22-.53l.07,0c.75-.18,1.49-.39,2.22-.61l.68-.19,1.51-.48.74-.25q.75-.26,1.47-.54c.2-.07.41-.14.6-.22.64-.26,1.26-.52,1.85-.79a51.48,51.48,0,0,0,8.23-5.36l-.6,68.55a51.48,51.48,0,0,1-8.23,5.36c-.59.28-1.22.54-1.86.8a.84.84,0,0,0-.14.06l-.42.15c-.49.19-1,.37-1.51.55l-.72.24-1.51.47-.46.15a2.1,2.1,0,0,1-.24.06c-.73.21-1.46.42-2.21.61l-.09,0c-.73.19-1.46.36-2.2.53l-.24.05-.36.08c-1,.22-2.07.44-3.1.62l-1.28.23-.27,0c-1,.16-1.92.29-2.89.42l-.66.09-2.9.35h-.09l-2,.23-1,.12c-1.06.12-2.11.24-3.16.38l-.38,0c-1,.13-2,.27-2.93.43l-.39.06c-1,.16-1.92.35-2.85.55l-.61.13c-.8.19-1.59.38-2.35.61h0q-1.12.33-2.19.75c-.21.07-.41.15-.62.24-.44.18-.86.37-1.28.58l-.56.26c-.58.32-1.15.64-1.68,1-3.34,2.26-4.93,5-5,8.11Z"/><path class="cls-39" d="M958.27,1041.28l-.09-.39c0-.12,0-.24-.07-.36s0-.08,0-.12a5,5,0,0,1-.06-.54c0-.14,0-.27,0-.41s0-.38,0-.58,0-.21,0-.33v-.13l.61-68.56a3.69,3.69,0,0,0,0,.47c0,.19,0,.39,0,.58s0,.27,0,.4,0,.36.07.55a4.3,4.3,0,0,0,.09.47c0,.13.05.26.08.4s.09.32.13.48l.11.38c0,.06,0,.12.07.19a11.92,11.92,0,0,0,.59,1.38s0,0,0,0a11.71,11.71,0,0,0,.76,1.26l.13.2a14.18,14.18,0,0,0,.93,1.15l.29.31.32.33.4.36.36.33.35.28c.21.17.43.34.66.5s.23.17.35.25.52.35.79.51l.31.19q.36.23.75.42l.34.19c.38.19.77.38,1.18.56.78.33,1.59.62,2.42.89.27.09.56.15.84.24.57.16,1.13.33,1.72.47l.46.09c.66.16,1.33.29,2,.41l.82.13c.63.11,1.27.2,1.91.28l.64.07c.83.1,1.68.19,2.54.25.53,0,1.07.08,1.62.11l1.37.08,1.67.07,1.35,0c1.07,0,2.14.05,3.23.06h.08l3.82,0,2.43,0,1.2,0,2.07,0h.52l.9,0,1.56.06,1.46.08,1.5.09.51,0h0c.56,0,1.11.1,1.66.16l.34,0c.72.08,1.44.16,2.14.27l.25.05c1,.15,2.08.33,3.09.55l.09,0,.1,0,.14,0,.22.07.17.05.29.09.22.07.36.11.23.08.43.14.26.08.47.16.28.1a5.52,5.52,0,0,1,.53.18l.3.1.53.19.35.12.51.18.42.16.49.18.45.16.51.19.45.17.52.2.45.18.52.19.45.19.51.2.44.19.54.22.39.17c.3.12.6.25.89.39s.84.37,1.23.56l-.6,68.55-1.23-.57-.89-.38-.3-.12-.63-.27-.37-.15-.58-.24-.42-.16-.55-.22-.43-.17-.54-.2-.45-.17-.51-.2-.44-.16-.51-.19-.41-.14-.5-.18-.44-.16-.42-.14-.44-.16-.39-.13-.39-.13-.37-.12-.34-.12-.35-.11-.3-.1-.29-.09a2,2,0,0,0-.27-.08,1.35,1.35,0,0,0-.24-.08l-.21-.06-.2-.06-.14,0-.2,0c-1-.23-2-.41-3.09-.56-.78-.12-1.57-.23-2.37-.31l-.4,0c-.7-.07-1.41-.14-2.13-.19l-1.49-.1-1.47-.08-1.53-.06-1.46,0-2,0-1.26,0-2.4,0-3.15,0h-.79l-3.18-.07h-.16l-1.31,0-1.58-.06-1.41-.09-1.57-.1h-.17c-.81-.07-1.6-.15-2.39-.24l-.6-.07c-.39-.06-.79-.1-1.18-.15v0h0v0l-.76-.13-.8-.14c-.68-.11-1.34-.25-2-.4l-.48-.1-.13,0c-.55-.13-1.07-.29-1.6-.44l-.82-.23c-.83-.27-1.64-.56-2.42-.89-.41-.18-.8-.37-1.18-.56l-.38-.22-.71-.38-.08,0-.25-.17c-.27-.16-.52-.32-.76-.49s-.25-.17-.37-.26-.44-.32-.65-.49-.14-.1-.21-.16h0l-.15-.13-.35-.31-.4-.38-.32-.32-.21-.21-.08-.1a13.89,13.89,0,0,1-.93-1.16l-.06-.08a.75.75,0,0,1-.07-.12,10.17,10.17,0,0,1-.76-1.25h0v0a11.5,11.5,0,0,1-.57-1.36.61.61,0,0,1-.05-.12v0h0v0l0-.1c0-.11-.07-.23-.11-.36S958.31,1041.45,958.27,1041.28Z"/><polygon class="cls-40" points="932.43 1056.08 931.83 1124.63 1226.59 1248.66 1227.19 1180.11 932.43 1056.08"/><polygon class="cls-39" points="1227.19 1180.11 1226.59 1248.66 1456.53 1093.51 1457.13 1024.95 1227.19 1180.11"/><path class="cls-41" d="M1457.13,1025l-122-51.31a58.18,58.18,0,0,0-9.52,7.23c-5.7,7.51,1.65,17.75-7.91,24.2-11.78,7.94-40.74,6.21-64.7-3.87l-2-.87c-22.51-10-31.52-24.05-20.09-31.77,7.32-4.94,19.93-4.62,30.19-6.52a66.58,66.58,0,0,0,15.06-4.39,51.48,51.48,0,0,0,8.23-5.36l-122.08-51.37-95.24,64.27c-2-.67-4.09-1.54-5.89-2.35a47.52,47.52,0,0,1-4.29-2.09,27.79,27.79,0,0,1-8.45-8c-3.62-5.39-3.26-12-12.16-15.93-15.55-6.55-42.92-1.47-61.62,11.15-18.49,12.47-21.54,27.64-7,34.11,12.76,5.38,31.94,1.59,46.12,4.71a113.28,113.28,0,0,1,12.51,4.59c.43.18.84.37,1.23.56l-95.13,64.19,294.76,124Z"/></g><path class="cls-1" d="M1627.42,1740.09c0,41.37-75.38,74.91-168.36,74.91s-168.36-33.54-168.36-74.91,75.38-74.91,168.36-74.91S1627.42,1698.72,1627.42,1740.09Z"/><path class="cls-4" d="M1373.72,1737.8s-17.85-3.26-12.83,11.31c0,0,41.7,17.91,70.82,13.87,0,0,20.46-.69,17.25-22.89l.34-18-27.45,5.2,1.56,17.15Z"/><path class="cls-42" d="M1449,1740.09a11.55,11.55,0,0,1-2.74,7.74c-7.18,8.28-21.31,8.53-31.25,7.9a337.42,337.42,0,0,1-47.56-6.65c-3.4-.72-4.35-1.84-4.38-2.84a13.88,13.88,0,0,1,10.69-8.44l-15.2-1.94c-14-.5-20.4,2.72-23.67,4.84-3.88,11.1,15,18.51,15,18.51a309,309,0,0,0,44.27,12.35s53.37,12.59,59.82-3.83Z"/><path class="cls-4" d="M1479.74,1713s-17.86-3.27-12.83,11.3c0,0,41.69,17.91,70.81,13.88,0,0,20.47-.69,17.26-22.9l.34-18-27.45,5.19,1.56,17.15Z"/><path class="cls-42" d="M1555,1715.28a11.51,11.51,0,0,1-2.74,7.74c-7.19,8.29-21.31,8.53-31.25,7.9a335.76,335.76,0,0,1-47.56-6.65c-3.4-.72-4.35-1.83-4.39-2.83a13.89,13.89,0,0,1,10.7-8.44l-15.2-1.94c-14-.5-20.4,2.71-23.67,4.83-3.88,11.1,15,18.5,15,18.5a308.5,308.5,0,0,0,44.27,12.37s53.37,12.58,59.82-3.83Z"/><path class="cls-43" d="M1474.8,1231.08a51,51,0,1,0,51-51A51,51,0,0,0,1474.8,1231.08Z"/><path class="cls-43" d="M1557.83,1476.4s-.71,12.81-23.72,13.13c0,0-21.79,7.43-31.2-20.94-37.06-111.72-27.26-228.3-27.26-228.3s52.33-29.15,101.07-9.21C1576.72,1231.08,1568.84,1377.72,1557.83,1476.4Z"/><path class="cls-43" d="M1502.91,1468.59s18,241.45,19.63,250.09c17.52,11.12,33-.31,33-.31-.09-11.84,12.82-110.58,14.15-129.12,2.29-31.87,6.12-72.13-14-117.93Z"/><path class="cls-44" d="M1410.13,1483.77s-4.91,11.85-26.73,4.52c0,0-23-.21-22.5-30.08,2-117.69,53.61-239.66,53.61-239.66S1472.6,1213,1512,1248C1512,1248,1453.21,1394.3,1410.13,1483.77Z"/><path class="cls-44" d="M1415.82,1214.19a51,51,0,1,0,65-31.2A51,51,0,0,0,1415.82,1214.19Z"/><path class="cls-44" d="M1576.72,1223.66c-6.16-56.67-34.59-83-34.59-83l-98.51-12.45s-27.16,47.26-30,95.42c11.78,32.12,53.75,41.48,53.75,41.48l31.87,9.46S1571.46,1263.62,1576.72,1223.66Z"/><path class="cls-44" d="M1365.45,1481.65s48.86,253.64,51.8,261.93c-1.29-.62,23.09,11.2,33.89-4.06-1.84-11.7-2.87-140.54-4.3-159.08-2.45-31.86-2.11-61.59-28.8-103.9C1418,1476.54,1351.33,1428.79,1365.45,1481.65Z"/><path class="cls-4" d="M1584,1037.53s-18,21.13-53.64,72.15l6.17,10.45s61.13-30.79,80.63-65.36Z"/><path class="cls-4" d="M1533.48,961.92s46,100.41,73.65,96.59c0,0,9.54.6,11.45-6.59,0,0,19.52-17.31-61.64-142.17,0,0-7.92-10.61-24.17-7.86C1532.77,901.89,1508.12,918.17,1533.48,961.92Z"/><rect class="cls-45" x="1459.06" y="883.32" width="49.74" height="52.87"/><path class="cls-6" d="M1428.29,884.52l-1.87-8.46-3.72-31a28,28,0,0,1,1.84-12.57c1.58-4,2.92-8.31,2.53-12.87-1.86-22.14,12.4-32.36,12.4-32.36,17-18,49.69-13.7,49.7-13.7,16.9,3.21,31.39,10.36,39,24.89,6.9,13.18,10.11,29,4.66,43-6,15.39-16.41,27.11-29.9,37.55-8.64,6.68-17.06,7.13-28,10.13-7.62,2.09-22,2.81-29.93,2.45C1440.84,891.44,1429.36,889.37,1428.29,884.52Z"/><path class="cls-46" d="M1450.94,855.86c2.46-3.48,11.39-5.63,11.4-5.63,10.8,0,9.39,14.41,10.4,20.66.34,2,.73,4.12,1.19,6.2,5.14,18.32,20.54,18.16,33.71,20.38.48-.29,1-.58,1.54-.87,2.38-8.13,10-16.56,10-16.56,19.77-17.09,26.22-47.81,18.69-72a57.2,57.2,0,0,0-12.33-20.63c-11.06-11.84-25.46-18.17-40.86-21.07s-70.05,4.55-55.11,37.8c0,0,22.53,26,21.41,51.7"/><path class="cls-47" d="M1450.94,855.86c2-4.94,6.77-8.74,12.19-7.13a8.16,8.16,0,0,1,6,8.79c-.08.89-.28,1.77-.37,2.65-1.56,9.49-11.56,13.11-11.56,13.11"/><path class="cls-48" d="M1462.12,853.21a5.68,5.68,0,0,0-2.4-.65c-3.63-.23-6.55,5.36-2.93,6.36,1.37,1.33,0,2.87,0,2.87-1.25,1.36-2.93,3.31-2.55,5.22.23,1.13,1.49,1.74,2.62,2,.92.23,1.09-.49.37-.83a4.13,4.13,0,0,1-1.38-1.13,2,2,0,0,0-.11-.2.32.32,0,0,1-.08-.14,1.19,1.19,0,0,1,0-.83,2.24,2.24,0,0,0,2.81,0c.69-.83.16-2.13.4-3.07a7,7,0,0,1,.84-1.88c1.66-2.77-1.34-3.24-1.34-3.24a9.85,9.85,0,0,0-1.1.08c-1.52-.78.18-3.07,1.1-3.43a2.93,2.93,0,0,1,3.17.55,4.55,4.55,0,0,1,1,3.21,10.74,10.74,0,0,1-1,3.83c-.33.69-.75,1.49-1.08,2.18s.53,1.12.91.33c.79-1.64,2.27-4,2.59-6.31A4.82,4.82,0,0,0,1462.12,853.21Z"/><path class="cls-48" d="M1450.94,855.86s.44-.62,1.14-1.74a14.54,14.54,0,0,1,1.51-1.74,12.27,12.27,0,0,1,2.29-1.78,9.7,9.7,0,0,1,3.1-1.12,7.94,7.94,0,0,1,3.54.24,9.53,9.53,0,0,1,1.8.77,8.1,8.1,0,0,1,1.43,1.09,6.84,6.84,0,0,1,1.89,3.22,9.71,9.71,0,0,1,.06,4l-.14,1.09V860h0c0-.06,0,.16,0-.13v.1l0,.27-.11.53a11.33,11.33,0,0,1-.52,1.92,15,15,0,0,1-1.68,3.35,19.44,19.44,0,0,1-2.18,2.7,24.1,24.1,0,0,1-4.09,3.4c-1.09.72-1.76,1.09-1.76,1.09a13.62,13.62,0,0,0,2-.66,20.92,20.92,0,0,0,4.83-2.76,16.51,16.51,0,0,0,2.71-2.66,14.21,14.21,0,0,0,2.25-3.69,13.87,13.87,0,0,0,.72-2.18l.14-.52.07-.27,0-.07,0-.21,0-.14.16-1.09a12,12,0,0,0,0-4.87,9.28,9.28,0,0,0-2.67-4.34,10.69,10.69,0,0,0-1-.8l-1.14-.64a9.9,9.9,0,0,0-2.19-.77,8.92,8.92,0,0,0-4.48.06,9.78,9.78,0,0,0-3.52,1.76,9.93,9.93,0,0,0-2.19,2.36,15.06,15.06,0,0,0-1.23,2.12C1451.18,855.14,1450.94,855.86,1450.94,855.86Z"/><path class="cls-15" d="M1457.16,871a3,3,0,1,1-3-3A3,3,0,0,1,1457.16,871Z"/><path class="cls-49" d="M1454.87,872.56a2.37,2.37,0,0,1-.73-4.62h0a3,3,0,1,0,3,3c0-.08,0-.15,0-.22A2.35,2.35,0,0,1,1454.87,872.56Z"/><path class="cls-42" d="M1588.69,1164.32l-54.92-78.8c-2.56-11.58,3.21-34.62,3.21-34.62l17.56-120.75c-2.08-13.84-3-31.41-21.77-28.26-13.21,2.21-15.82,4.06-24,6.68,2.39,11.21-17,18.41-17,18.41-26.63,11.5-32.78,3.93-32.78,3.93-7.09,3.83-31,15.8-37.27,20.91-6.46,5.32-10.36,13.6-8.33,27.53l19.16,114.45-3.37,28.43-35,88.74a75.2,75.2,0,0,1,34.1-4.07c10.88,1.3,20.26,7.72,31.07,8.92,16.34,1.8,28.46-4.1,40.79-11.91a196.64,196.64,0,0,0,47.2-16.59h1c12.22.07,26-.14,35.07-9.71C1585.41,1175.59,1591,1167.63,1588.69,1164.32Z"/><path class="cls-6" d="M1399.17,1135l.32-139c3.38-38.09,22.3-44.18,22.3-44.18,38.25-4.48,32.35,66.39,32.35,66.39l-16,119.77"/><path class="cls-6" d="M1277.44,1211c17.54-9.39,19.11-12.42,22.2-16.83,13.34-19-13.62-18.35-20.4-16.81-3.9.89-4.14,10.15-16.22,21.45,0,0-19,11-23.66,10.24,0,0-4.87.7-4.87,4.2C1234.49,1213.29,1247.82,1221.17,1277.44,1211Z"/><path class="cls-6" d="M1402,1120.37,1283,1185.55c-5.15,14.33,1.47,16.39,1.47,16.39l92.19-26.52c39.35-10.54,54.95-27.06,54.95-27.06s17.21-11.92-4.75-29.68C1426.83,1118.68,1416.83,1110.77,1402,1120.37Z"/><path class="cls-46" d="M1440.37,847.35c3.09,23.06-.39,53.57,11.1,78.77,5.11,11.22,10.75,16.78,7.69,29.8-2.51,10.65-7.55,20.7-10.28,31.73-6,24.34,2.16,48.12,30.54,39.31,13.6-4.23,15.12-4.16,27.51.64,10.4,4,20.18,5.16,30.52.13,16-7.82,11.21-19.62,20.2-31.45,6.84-9,16.52-8.79,21.68-20.89,6.23-14.62-1.19-22.42-8.78-34.82-7.89-12.92-9.16-21.43-6.56-37,2.19-13.09-1-19.7-5.38-31.74-4.44-12.33-2.5-23.07-4.61-35.43-4.16-24.45-17.52-57.63-43.13-64.8-12.55-3.51-28.77-6.26-40.85-1.83-16.45,6-34.76,12.46-34,32.69C1436.7,823.27,1437.62,826.81,1440.37,847.35Z"/><path class="cls-6" d="M1282.42,1176.92s3.34,9.76-8.81,7.37l-11.9-9.06s-3.69-2-2.38-5.51c0,0,1.42-2,5.22,0Z"/><path class="cls-50" d="M1552.71,87.15A41.12,41.12,0,1,1,1511.6,46,41.11,41.11,0,0,1,1552.71,87.15Z"/><path class="cls-50" d="M270.52,1815a41.12,41.12,0,1,1-41.12-41.12A41.12,41.12,0,0,1,270.52,1815Z"/><path class="cls-51" d="M229.4,400A29.43,29.43,0,1,1,200,370.62,29.42,29.42,0,0,1,229.4,400Z"/><path class="cls-51" d="M1924.83,620.94a29.43,29.43,0,1,1-29.43-29.42A29.43,29.43,0,0,1,1924.83,620.94Z"/><circle class="cls-52" cx="1081.45" cy="337.12" r="29.43" transform="translate(78.37 863.44) rotate(-45)"/><path class="cls-53" d="M105.5,1018.45A29.43,29.43,0,1,1,76.07,989,29.42,29.42,0,0,1,105.5,1018.45Z"/><path class="cls-53" d="M1948.4,1212a29.43,29.43,0,1,1-29.43-29.43A29.43,29.43,0,0,1,1948.4,1212Z"/><path class="cls-37" d="M890.09,29.42A29.43,29.43,0,1,1,860.67,0,29.42,29.42,0,0,1,890.09,29.42Z"/><path class="cls-37" d="M1812.41,1668.44A29.43,29.43,0,1,1,1783,1639,29.43,29.43,0,0,1,1812.41,1668.44Z"/><line class="cls-54" y1="1247.98" x2="92.26" y2="1247.98"/><line class="cls-54" x1="106.02" y1="1247.98" x2="152.15" y2="1247.98"/><line class="cls-55" x1="1787.93" y1="1444.88" x2="1895.4" y2="1444.88"/><line class="cls-55" x1="1911.43" y1="1444.88" x2="1965.17" y2="1444.88"/><line class="cls-54" x1="921.44" y1="1795.17" x2="829.16" y2="1795.17"/><line class="cls-54" x1="815.42" y1="1795.17" x2="769.29" y2="1795.17"/><line class="cls-54" x1="1700.82" y1="199.01" x2="1739.54" y2="199.01"/><line class="cls-54" x1="1749.51" y1="199.01" x2="1782.98" y2="199.01"/><line class="cls-54" x1="1655.88" y1="199.01" x2="1689.34" y2="199.01"/><line class="cls-54" x1="1827.42" y1="850.1" x2="1963.38" y2="850.1"/><line class="cls-54" x1="1121.63" y1="159.58" x2="1134.49" y2="172.44"/><line class="cls-54" x1="1143.56" y1="181.51" x2="1156.42" y2="194.38"/><line class="cls-54" x1="1156.42" y1="159.58" x2="1143.56" y2="172.44"/><line class="cls-54" x1="1134.49" y1="181.51" x2="1121.63" y2="194.38"/><line class="cls-54" x1="41.28" y1="592.57" x2="54.14" y2="605.43"/><line class="cls-54" x1="63.21" y1="614.51" x2="76.08" y2="627.37"/><line class="cls-54" x1="76.08" y1="592.57" x2="63.21" y2="605.43"/><line class="cls-54" x1="54.14" y1="614.51" x2="41.28" y2="627.37"/><line class="cls-54" x1="1010.16" y1="1394.72" x2="1023.02" y2="1407.59"/><line class="cls-54" x1="1032.1" y1="1416.66" x2="1044.96" y2="1429.52"/><line class="cls-54" x1="1044.96" y1="1394.72" x2="1032.1" y2="1407.59"/><line class="cls-54" x1="1023.02" y1="1416.66" x2="1010.16" y2="1429.52"/><path class="cls-54" d="M395.64,340.56a16,16,0,1,1-16-16A16,16,0,0,1,395.64,340.56Z"/><path class="cls-54" d="M1449.21,415.46a16,16,0,1,1-16-16A16,16,0,0,1,1449.21,415.46Z"/></svg>