<svg width="243" height="32" viewBox="0 0 243 32" fill="none" xmlns="http://www.w3.org/2000/svg">
<g clip-path="url(#clip0_57_1395)">
<path d="M154.764 29.8181C153.119 29.8181 151.816 29.8181 150.305 29.8181C150.305 21.719 150.305 13.7357 150.305 5.78143C154.178 4.79692 154.843 5.04305 156.776 8.0545C158.52 10.7706 160.275 13.4751 162.246 16.5242C162.923 15.6266 163.477 14.9693 163.947 14.254C165.588 11.758 167.186 9.23302 168.828 6.73989C169.653 5.48897 172.712 4.77086 173.925 5.58453C174.261 5.81039 174.535 6.39241 174.532 6.81228C174.517 14.3467 174.459 21.8811 174.401 29.4156C174.401 29.4793 174.301 29.543 174.103 29.7775C172.954 29.7775 171.659 29.7775 170.096 29.7775C170.096 24.5133 170.096 18.343 170.096 13.0845C170.032 13.0845 164.852 20.5042 162.299 24.1861C159.78 20.4999 157.441 17.0744 154.764 13.1566C154.764 19.026 154.764 24.2874 154.764 29.8181Z" fill="#A1FDFF"/>
<path d="M0.0317383 25.719C0.859896 24.7257 1.63557 23.7905 2.50163 22.748C3.36478 23.3069 4.02673 23.7847 4.73533 24.1843C6.8028 25.3454 8.96651 26.1417 11.4072 25.7595C13.1452 25.4873 14.5041 24.3551 14.542 23.026C14.5857 21.4132 13.4077 20.6661 12.1217 20.2259C9.76259 19.4181 7.28687 18.9258 4.98027 18.0021C1.04652 16.424 -0.458158 11.8112 1.90676 8.29885C2.76991 7.01609 4.24834 5.8115 5.70637 5.30767C10.2029 3.74982 14.3466 4.87043 18.3387 7.76316C17.5339 8.94168 16.8136 9.99859 16.1867 10.9194C14.0842 10.1607 12.2646 9.36734 10.3691 8.87798C9.47391 8.64922 8.27249 8.73319 7.49391 9.17043C6.67158 9.63084 5.79677 10.6298 5.67721 11.4927C5.58098 12.1906 6.4208 13.233 7.12065 13.7658C7.87299 14.342 8.93735 14.5302 9.87924 14.8372C11.4597 15.3526 13.0898 15.7348 14.6324 16.3371C17.7671 17.5591 19.2281 19.5657 19.1494 22.4961C19.0677 25.5858 17.598 27.7546 14.7403 29.1213C10.4275 31.1859 2.5512 29.2053 0.0317383 25.719Z" fill="black"/>
<path d="M74.8401 8.65791C74.0352 9.61057 73.2071 10.5951 72.2477 11.7331C69.4366 9.77273 66.5847 8.00929 63.1788 9.20229C61.6799 9.72639 60.1315 10.7051 59.1313 11.9068C56.5039 15.0659 56.7606 20.2578 59.4754 23.1331C61.1988 24.9574 63.3829 26.2315 65.914 25.6784C68.1215 25.1948 70.1831 24.0568 72.6355 23.0781C73.1896 23.6572 74.0177 24.5259 74.843 25.3888C72.4635 29.1647 67.2058 30.8905 62.0036 29.6251C56.7343 28.3424 52.9784 23.9671 52.6314 18.6999C52.2115 12.3382 55.0547 7.55757 60.531 5.41481C65.5174 3.47185 71.5566 4.77777 74.8401 8.65791Z" fill="black"/>
<path d="M113.912 29.2922C113.399 29.4167 113.163 29.5122 112.921 29.5238C109.413 29.6947 109.407 29.6947 108.019 26.4516C106.193 22.1863 104.385 17.9153 102.554 13.6529C102.175 12.7697 101.732 11.9126 101.111 10.6096C99.0724 15.399 97.2295 19.7279 95.3865 24.0569C95.0308 24.8966 94.6634 25.7306 94.3047 26.5674C92.8642 29.9292 92.7533 29.9842 88.7379 29.2169C88.8721 28.6696 88.9275 28.0934 89.1462 27.5896C92.2285 20.5329 95.3836 13.5081 98.3871 6.42251C99.0258 4.91389 100.006 4.85018 101.315 4.85018C102.554 4.84728 103.493 4.93126 104.085 6.31827C107.202 13.6297 110.422 20.9006 113.597 28.1889C113.726 28.4814 113.775 28.8028 113.912 29.2922Z" fill="black"/>
<path d="M189.575 10.6211C186.802 17.1073 184.201 23.1824 181.544 29.3906C180.112 29.3906 178.657 29.3906 176.873 29.3906C177.572 27.7314 178.15 26.3068 178.768 24.8995C181.497 18.6797 184.276 12.483 186.939 6.23716C187.496 4.92834 188.374 4.85305 189.511 4.8849C190.663 4.91386 191.777 4.65904 192.409 6.13581C195.643 13.6702 198.959 21.167 202.236 28.6812C202.292 28.8115 202.222 28.9968 202.201 29.3066C201.854 29.3761 201.475 29.5209 201.093 29.5209C197.139 29.5093 198.014 29.9523 196.55 26.66C194.634 22.3513 192.858 17.9789 191.007 13.6413C190.631 12.7465 190.181 11.8894 189.575 10.6211Z" fill="#A1FDFF"/>
<path d="M135.546 29.3877C129.589 29.3877 124.04 29.3877 118.234 29.3877C118.234 21.3118 118.234 13.2851 118.234 5.13683C119.663 5.13683 120.946 5.13683 122.523 5.13683C122.523 11.8692 122.523 18.4451 122.523 25.2759C126.854 25.2759 130.904 25.2759 135.261 25.2759C135.357 26.6948 135.438 27.8704 135.546 29.3877Z" fill="black"/>
<path d="M79.8527 5.0847C81.3253 5.0847 82.5443 5.0847 84.0139 5.0847C84.0139 13.2011 84.0139 21.222 84.0139 29.3703C83.2529 29.4311 82.6055 29.5209 81.9581 29.5267C81.3137 29.5325 80.6663 29.4514 79.8498 29.3993C79.8527 21.306 79.8527 13.3401 79.8527 5.0847Z" fill="black"/>
<path d="M209.214 5.09047C210.693 5.09047 211.918 5.09047 213.393 5.09047C213.393 13.204 213.393 21.2278 213.393 29.3935C211.961 29.3935 210.67 29.3935 209.214 29.3935C209.214 21.3263 209.214 13.3546 209.214 5.09047Z" fill="#A1FDFF"/>
<path d="M203.35 8.9243C203.662 9.02275 204.039 9.06619 204.499 9.0604C205.473 9.04592 206.447 9.04013 207.421 9.03434C206.433 9.03434 205.444 9.03723 204.456 9.03144C204.103 9.02854 203.744 8.98221 203.35 8.9243Z" fill="#FDC31E"/>
<path d="M215.187 5.06734C211.609 5.06444 208.034 5.07313 204.456 5.04128C203.995 5.03838 203.607 5.07602 203.286 5.18027C203.581 5.12815 203.872 5.08471 204.164 5.08471C207.838 5.06155 211.512 5.08761 215.187 5.06734Z" fill="#FDC31E"/>
<path d="M219.26 5.17739C218.948 5.07894 218.572 5.03551 218.111 5.0413C217.137 5.05577 216.161 5.06156 215.187 5.06736C211.512 5.08763 207.838 5.06157 204.164 5.08184C203.872 5.08473 203.581 5.12527 203.286 5.17739C202.639 5.38588 202.274 5.87523 202.263 6.94082C202.248 8.10486 202.595 8.68399 203.35 8.92143C203.744 8.98224 204.103 9.02857 204.456 9.02857C205.444 9.03436 206.433 9.03146 207.421 9.03146C210.999 9.03436 214.577 9.02567 218.155 9.05752C218.616 9.06042 219.004 9.02277 219.324 8.91853C219.972 8.71005 220.336 8.22069 220.348 7.1551C220.365 5.99396 220.016 5.41483 219.26 5.17739Z" fill="#A1FDFF"/>
<path d="M239.982 14.7445C239.982 16.2213 239.982 17.3419 239.982 18.8129C236.036 18.8129 232.17 18.8129 228.143 18.8129C228.143 21.0136 228.143 22.8697 228.143 25.0761C231.365 25.0761 234.505 25.0761 237.646 25.0761C238.063 25.0761 238.48 25.0761 238.897 25.0761C242.253 25.0732 242.434 25.3223 241.632 29.0634C235.707 29.0634 229.741 29.0634 223.337 29.0634C223.337 27.3173 223.337 25.6176 223.337 23.9179C223.34 21.4334 223.352 18.9461 223.34 16.4616C223.334 15.5263 223.567 14.759 224.664 14.7532C229.723 14.7329 234.782 14.7445 239.982 14.7445Z" fill="#A1FDFF"/>
<path d="M241.486 5.03258C241.486 6.29797 241.486 7.26222 241.486 8.42627C240.839 8.53051 240.212 8.71293 239.585 8.71583C234.934 8.74189 230.286 8.68977 225.638 8.75926C224.066 8.78243 223.378 8.29017 223.398 6.64255C223.419 5.04416 224.215 4.72854 225.594 4.74012C230.16 4.78356 234.727 4.74881 239.294 4.76908C239.938 4.76908 240.582 4.91676 241.486 5.03258Z" fill="#A1FDFF"/>
<path fill-rule="evenodd" clip-rule="evenodd" d="M35.5667 31.0781C43.0208 31.0781 49.0635 25.0354 49.0635 17.5813C49.0635 10.1273 43.0208 4.08455 35.5667 4.08455C28.1127 4.08455 22.07 10.1273 22.07 17.5813C22.07 19.8881 22.6486 22.0597 23.6688 23.9589C23.6643 26.4065 23.1433 30.0223 21.0317 31.0781C21.0317 31.4191 22.5434 31.4913 28.5455 29.1103C30.5911 30.3588 32.9949 31.0781 35.5667 31.0781ZM35.5667 27.0431C30.3411 27.0431 26.1049 22.8069 26.1049 17.5813C26.1049 12.3557 30.3411 8.1195 35.5667 8.1195C40.7923 8.1195 45.0285 12.3557 45.0285 17.5813C45.0285 22.8069 40.7923 27.0431 35.5667 27.0431Z" fill="#A1FDFF"/>
</g>
<defs>
<clipPath id="clip0_57_1395">
<rect x="0.0317383" y="0.084549" width="242" height="31" fill="white"/>
</clipPath>
</defs>
</svg>
