<svg width="29" height="28" viewBox="0 0 29 28" fill="none" xmlns="http://www.w3.org/2000/svg">
<path fill-rule="evenodd" clip-rule="evenodd" d="M14.535 26.9935C21.989 26.9935 28.0317 20.9508 28.0317 13.4968C28.0317 6.04271 21.989 0 14.535 0C7.08092 0 1.03821 6.04271 1.03821 13.4968C1.03821 15.8035 1.61691 17.9751 2.63705 19.8743C2.63256 22.322 2.11161 25.9377 0 26.9935C0 27.3345 1.51168 27.4067 7.51378 25.0258C9.55936 26.2742 11.9632 26.9935 14.535 26.9935ZM14.535 22.9586C9.30936 22.9586 5.07316 18.7224 5.07316 13.4968C5.07316 8.27115 9.30936 4.03495 14.535 4.03495C19.7606 4.03495 23.9968 8.27115 23.9968 13.4968C23.9968 18.7224 19.7606 22.9586 14.535 22.9586Z" fill="#A1FDFF"/>
</svg>
